<svg xmlns="http://www.w3.org/2000/svg" width="900" height="236" viewBox="0 0 900 236" role="img" aria-label="GitHub stats: 0 stars, 4 contributions, 1 repos, 2 followers">
<defs>
  <linearGradient id="bg" x1="0" y1="0" x2="0" y2="1">
    <stop offset="0" stop-color="#1a0d10"/><stop offset="1" stop-color="#0e0809"/>
  </linearGradient>
  <linearGradient id="edge" x1="0" y1="0" x2="1" y2="1">
    <stop offset="0" stop-color="#ef4444" stop-opacity=".75"/>
    <stop offset=".45" stop-color="#991b1b" stop-opacity=".35"/>
    <stop offset="1" stop-color="#fb7185" stop-opacity=".6"/>
  </linearGradient>
  <radialGradient id="aura1"><stop offset="0" stop-color="#ef4444" stop-opacity=".28"/><stop offset="1" stop-color="#ef4444" stop-opacity="0"/></radialGradient>
  <radialGradient id="aura2"><stop offset="0" stop-color="#fb7185" stop-opacity=".16"/><stop offset="1" stop-color="#fb7185" stop-opacity="0"/></radialGradient>
  <filter id="soft" x="-20%" y="-20%" width="140%" height="140%"><feGaussianBlur stdDeviation="6"/></filter>
  <clipPath id="clip"><rect x="1" y="1" width="898" height="234" rx="20"/></clipPath>
</defs>
<style>
  .k-in   { opacity: 0; animation: k-fade .7s cubic-bezier(.2,.7,.2,1) forwards; }
  .k-rise { opacity: 0; animation: k-rise .8s cubic-bezier(.2,.7,.2,1) forwards; }
  .k-grow { transform-box: fill-box; transform-origin: left center; transform: scaleX(0);
            animation: k-grow 1.2s cubic-bezier(.2,.7,.2,1) forwards; }
  .k-drift-a { animation: k-drift-a 14s ease-in-out infinite alternate; }
  .k-drift-b { animation: k-drift-b 18s ease-in-out infinite alternate; }
  .k-pulse { animation: k-pulse 2.4s ease-in-out infinite; }
  .k-blink { animation: k-blink 1.1s steps(1) infinite; }
  .k-spin  { transform-box: fill-box; transform-origin: center; animation: k-spin 14s linear infinite; }
  @keyframes k-fade  { to { opacity: 1; } }
  @keyframes k-rise  { from { opacity: 0; transform: translateY(6px); } to { opacity: 1; transform: translateY(0); } }
  @keyframes k-grow  { to { transform: scaleX(1); } }
  @keyframes k-drift-a { to { transform: translate(-40px, 18px); } }
  @keyframes k-drift-b { to { transform: translate(46px, -14px); } }
  @keyframes k-pulse { 0%,100% { opacity: 1; } 50% { opacity: .35; } }
  @keyframes k-blink { 50% { opacity: 0; } }
  @keyframes k-spin  { to { transform: rotate(360deg); } }
  @media (prefers-reduced-motion: reduce) {
    .k-in, .k-rise { opacity: 1; animation: none; }
    .k-grow { transform: none; animation: none; }
    .k-drift-a, .k-drift-b, .k-pulse, .k-spin, .k-blink { animation: none; }
  }
</style>
<rect x="1" y="1" width="898" height="234" rx="20" fill="url(#bg)"/><g clip-path="url(#clip)"><ellipse class="k-drift-a" cx="738" cy="12" rx="288" ry="212" fill="url(#aura1)"/><ellipse class="k-drift-b" cx="108" cy="236" rx="252" ry="189" fill="url(#aura2)"/></g><rect x="1" y="1" width="898" height="234" rx="20" fill="none" stroke="#ef4444" stroke-opacity=".35" stroke-width="3" filter="url(#soft)"/><rect x="1" y="1" width="898" height="234" rx="20" fill="none" stroke="url(#edge)" stroke-width="1.2"/><path fill="#fafafa" d="M33.584 52.0V35.2H40.496Q42.08 35.2 43.292 35.836Q44.504 36.472 45.188 37.623999999999995Q45.872 38.775999999999996 45.872 40.36V40.696Q45.872 42.256 45.164 43.42Q44.456 44.584 43.244 45.22Q42.032 45.856 40.496 45.856H36.752V52.0ZM36.752 42.976H40.184Q41.312 42.976 42.007999999999996 42.352000000000004Q42.704 41.728 42.704 40.647999999999996V40.408Q42.704 39.328 42.007999999999996 38.704Q41.312 38.08 40.184 38.08H36.752ZM48.176 52.0V40.096000000000004H51.152V41.44H51.584Q51.848 40.72 52.46 40.384Q53.072 40.048 53.888000000000005 40.048H55.328V42.736000000000004H53.84Q52.688 42.736000000000004 51.944 43.348Q51.2 43.96 51.2 45.232V52.0ZM63.344 52.336Q61.568 52.336 60.152 51.616Q58.736 50.896 57.92 49.528Q57.104 48.16 57.104 46.24V45.856Q57.104 43.936 57.92 42.568Q58.736 41.2 60.152 40.480000000000004Q61.568 39.76 63.344 39.76Q65.12 39.76 66.536 40.480000000000004Q67.952 41.2 68.768 42.568Q69.584 43.936 69.584 45.856V46.24Q69.584 48.16 68.768 49.528Q67.952 50.896 66.536 51.616Q65.12 52.336 63.344 52.336ZM63.344 49.648Q64.736 49.648 65.648 48.748000000000005Q66.56 47.848 66.56 46.168V45.928Q66.56 44.248 65.66 43.348Q64.76 42.448 63.344 42.448Q61.952 42.448 61.04 43.348Q60.128 44.248 60.128 45.928V46.168Q60.128 47.848 61.04 48.748000000000005Q61.952 49.648 63.344 49.648ZM74.336 52.0V42.592H71.312V40.096000000000004H74.336V37.888Q74.336 36.664 75.068 35.932Q75.8 35.2 76.976 35.2H80.096V37.696H78.032Q77.36 37.696 77.36 38.416V40.096000000000004H80.48V42.592H77.36V52.0ZM82.83200000000001 52.0V40.096000000000004H85.856V52.0ZM84.344 38.704Q83.52799999999999 38.704 82.964 38.176Q82.39999999999999 37.647999999999996 82.39999999999999 36.784Q82.39999999999999 35.92 82.964 35.392Q83.52799999999999 34.864000000000004 84.344 34.864000000000004Q85.184 34.864000000000004 85.73599999999999 35.392Q86.288 35.92 86.288 36.784Q86.288 37.647999999999996 85.73599999999999 38.176Q85.184 38.704 84.344 38.704ZM89.21600000000001 52.0V35.2H92.24V52.0ZM101.024 52.336Q99.248 52.336 97.892 51.58Q96.536 50.824 95.78 49.444Q95.024 48.064 95.024 46.192V45.903999999999996Q95.024 44.032 95.768 42.652Q96.512 41.272 97.856 40.516Q99.2 39.76 100.976 39.76Q102.72800000000001 39.76 104.024 40.54Q105.32000000000001 41.32 106.04 42.7Q106.76 44.08 106.76 45.903999999999996V46.936H98.096Q98.144 48.16 99.00800000000001 48.928Q99.872 49.696 101.12 49.696Q102.392 49.696 102.99199999999999 49.144Q103.592 48.592 103.904 47.92L106.376 49.216Q106.04 49.84 105.404 50.572Q104.768 51.304 103.712 51.82Q102.656 52.336 101.024 52.336ZM98.12 44.68H103.688Q103.592 43.647999999999996 102.86 43.024Q102.128 42.4 100.952 42.4Q99.72800000000001 42.4 99.00800000000001 43.024Q98.288 43.647999999999996 98.12 44.68ZM121.28 52.336Q119.336 52.336 117.848 51.64Q116.36 50.944 115.52000000000001 49.647999999999996Q114.68 48.352 114.68 46.528V45.856H117.80000000000001V46.528Q117.80000000000001 48.04 118.736 48.796Q119.672 49.552 121.28 49.552Q122.912 49.552 123.71600000000001 48.903999999999996Q124.52000000000001 48.256 124.52000000000001 47.248Q124.52000000000001 46.552 124.12400000000001 46.120000000000005Q123.72800000000001 45.688 122.97200000000001 45.412000000000006Q122.21600000000001 45.136 121.13600000000001 44.896L120.584 44.775999999999996Q118.85600000000001 44.391999999999996 117.62 43.804Q116.384 43.216 115.724 42.256Q115.06400000000001 41.296 115.06400000000001 39.76Q115.06400000000001 38.224000000000004 115.796 37.132000000000005Q116.528 36.04 117.86000000000001 35.452Q119.19200000000001 34.864000000000004 120.992 34.864000000000004Q122.792 34.864000000000004 124.196 35.476Q125.60000000000001 36.088 126.404 37.3Q127.208 38.512 127.208 40.336V41.056H124.08800000000001V40.336Q124.08800000000001 39.376 123.71600000000001 38.788Q123.34400000000001 38.2 122.648 37.924Q121.952 37.647999999999996 120.992 37.647999999999996Q119.552 37.647999999999996 118.868 38.188Q118.184 38.728 118.184 39.664Q118.184 40.288 118.50800000000001 40.72Q118.83200000000001 41.152 119.48 41.44Q120.128 41.728 121.13600000000001 41.944L121.688 42.064Q123.488 42.448 124.82 43.048Q126.152 43.647999999999996 126.896 44.632Q127.64 45.616 127.64 47.152Q127.64 48.688 126.86000000000001 49.852000000000004Q126.08000000000001 51.016 124.65200000000002 51.676Q123.224 52.336 121.28 52.336ZM130.08800000000002 52.0V40.096000000000004H133.11200000000002V52.0ZM131.60000000000002 38.704Q130.78400000000002 38.704 130.22000000000003 38.176Q129.65600000000003 37.647999999999996 129.65600000000003 36.784Q129.65600000000003 35.92 130.22000000000003 35.392Q130.78400000000002 34.864000000000004 131.60000000000002 34.864000000000004Q132.44000000000003 34.864000000000004 132.99200000000002 35.392Q133.54400000000004 35.92 133.54400000000004 36.784Q133.54400000000004 37.647999999999996 132.99200000000002 38.176Q132.44000000000003 38.704 131.60000000000002 38.704ZM135.89600000000002 46.096000000000004V45.712Q135.89600000000002 43.84 136.64000000000001 42.508Q137.38400000000001 41.176 138.62 40.468Q139.856 39.76 141.32 39.76Q142.952 39.76 143.792 40.336Q144.632 40.912 145.016 41.536H145.448V40.096000000000004H148.424V54.112Q148.424 55.336 147.704 56.068Q146.984 56.8 145.784 56.8H137.816V54.16H144.728Q145.4 54.16 145.4 53.44V50.344H144.968Q144.728 50.728 144.296 51.124Q143.864 51.52 143.144 51.784000000000006Q142.424 52.048 141.32 52.048Q139.856 52.048 138.62 51.34Q137.38400000000001 50.632 136.64000000000001 49.3Q135.89600000000002 47.968 135.89600000000002 46.096000000000004ZM142.184 49.408Q143.576 49.408 144.512 48.519999999999996Q145.448 47.632 145.448 46.024V45.784Q145.448 44.152 144.524 43.275999999999996Q143.6 42.4 142.184 42.4Q140.792 42.4 139.856 43.275999999999996Q138.92000000000002 44.152 138.92000000000002 45.784V46.024Q138.92000000000002 47.632 139.856 48.519999999999996Q140.792 49.408 142.184 49.408ZM151.784 52.0V40.096000000000004H154.76V41.656H155.19199999999998Q155.48 41.032 156.272 40.467999999999996Q157.064 39.903999999999996 158.672 39.903999999999996Q160.064 39.903999999999996 161.108 40.54Q162.152 41.176 162.72799999999998 42.292Q163.30399999999997 43.408 163.30399999999997 44.896V52.0H160.27999999999997V45.136Q160.27999999999997 43.792 159.61999999999998 43.120000000000005Q158.95999999999998 42.448 157.736 42.448Q156.344 42.448 155.576 43.372Q154.808 44.296 154.808 45.952V52.0ZM170.264 52.336Q168.99200000000002 52.336 167.984 51.891999999999996Q166.976 51.448 166.388 50.596000000000004Q165.8 49.744 165.8 48.52Q165.8 47.296 166.388 46.468Q166.976 45.64 168.01999999999998 45.22Q169.064 44.8 170.40800000000002 44.8H173.672V44.128Q173.672 43.288 173.144 42.748Q172.616 42.208 171.464 42.208Q170.336 42.208 169.784 42.724000000000004Q169.232 43.24 169.064 44.056L166.28 43.12Q166.568 42.208 167.204 41.452Q167.84 40.696 168.90800000000002 40.227999999999994Q169.976 39.76 171.512 39.76Q173.864 39.76 175.232 40.936Q176.6 42.112 176.6 44.344V48.784Q176.6 49.504 177.272 49.504H178.232V52.0H176.216Q175.328 52.0 174.752 51.568Q174.17600000000002 51.136 174.17600000000002 50.416V50.392H173.72Q173.624 50.68 173.288 51.147999999999996Q172.952 51.616 172.232 51.976Q171.512 52.336 170.264 52.336ZM170.792 49.888Q172.064 49.888 172.868 49.18Q173.672 48.472 173.672 47.296V47.056H170.624Q169.784 47.056 169.304 47.416Q168.824 47.775999999999996 168.824 48.424Q168.824 49.072 169.328 49.480000000000004Q169.832 49.888 170.792 49.888ZM180.44 52.0V35.2H183.464V52.0Z"><title>Profile Signal</title></path><path fill="#b3a5a7" d="M32.949 76.0V66.9H34.353V74.726H38.734V76.0ZM40.06 76.0V69.591H41.399V76.0ZM40.736000000000004 68.72Q40.346000000000004 68.72 40.0795 68.4665Q39.813 68.213 39.813 67.81Q39.813 67.407 40.0795 67.15350000000001Q40.346000000000004 66.9 40.736000000000004 66.9Q41.139 66.9 41.399 67.15350000000001Q41.659000000000006 67.407 41.659000000000006 67.81Q41.659000000000006 68.213 41.399 68.4665Q41.139 68.72 40.736000000000004 68.72ZM44.87 76.0 42.711999999999996 69.591H44.129L45.832 75.012H46.04L47.742999999999995 69.591H49.16L47.001999999999995 76.0ZM53.398 76.182Q52.423 76.182 51.695 75.77250000000001Q50.967 75.363 50.557500000000005 74.6155Q50.148 73.868 50.148 72.88V72.724Q50.148 71.723 50.551 70.9755Q50.954 70.228 51.6755 69.8185Q52.397 69.409 53.346000000000004 69.409Q54.269 69.409 54.9645 69.8185Q55.660000000000004 70.228 56.05 70.95599999999999Q56.44 71.684 56.44 72.659V73.166H51.513Q51.539 74.011 52.078500000000005 74.5115Q52.618 75.012 53.424 75.012Q54.178 75.012 54.561499999999995 74.674Q54.945 74.336 55.153 73.894L56.258 74.466Q56.076 74.83 55.7315 75.233Q55.387 75.636 54.828 75.90899999999999Q54.269 76.182 53.398 76.182ZM51.526 72.139H55.075Q55.023 71.411 54.55500000000001 71.0015Q54.087 70.592 53.333 70.592Q52.579 70.592 52.1045 71.0015Q51.63 71.411 51.526 72.139ZM64.48700000000001 76.182Q63.51200000000001 76.182 62.745000000000005 75.7595Q61.978 75.337 61.536 74.518Q61.09400000000001 73.699 61.09400000000001 72.516V70.384Q61.09400000000001 68.603 62.069 67.6605Q63.044000000000004 66.718 64.708 66.718Q66.346 66.718 67.23 67.60849999999999Q68.114 68.499 68.114 69.994V70.059H66.723V69.955Q66.723 69.396 66.50200000000001 68.94749999999999Q66.281 68.499 65.839 68.239Q65.397 67.979 64.708 67.979Q63.668000000000006 67.979 63.083000000000006 68.6095Q62.498000000000005 69.24 62.498000000000005 70.358V72.542Q62.498000000000005 73.647 63.083000000000006 74.29050000000001Q63.668000000000006 74.934 64.721 74.934Q65.76100000000001 74.934 66.242 74.362Q66.723 73.79 66.723 72.88V72.711H64.27900000000001V71.502H68.114V76.0H66.81400000000001V75.077H66.60600000000001Q66.489 75.324 66.26150000000001 75.584Q66.034 75.844 65.6115 76.013Q65.18900000000001 76.182 64.48700000000001 76.182ZM69.96000000000001 76.0V69.591H71.299V76.0ZM70.63600000000001 68.72Q70.24600000000001 68.72 69.9795 68.4665Q69.71300000000001 68.213 69.71300000000001 67.81Q69.71300000000001 67.407 69.9795 67.15350000000001Q70.24600000000001 66.9 70.63600000000001 66.9Q71.039 66.9 71.299 67.15350000000001Q71.559 67.407 71.559 67.81Q71.559 68.213 71.299 68.4665Q71.039 68.72 70.63600000000001 68.72ZM75.69300000000001 76.0Q75.108 76.0 74.76350000000001 75.649Q74.41900000000001 75.298 74.41900000000001 74.713V70.722H72.65100000000001V69.591H74.41900000000001V67.472H75.75800000000001V69.591H77.66900000000001V70.722H75.75800000000001V74.479Q75.75800000000001 74.869 76.12200000000001 74.869H77.46100000000001V76.0ZM79.203 76.0V66.9H80.607V70.8H84.429V66.9H85.833V76.0H84.429V72.074H80.607V76.0ZM90.227 76.117Q89.49900000000001 76.117 88.927 75.792Q88.355 75.467 88.03 74.869Q87.70500000000001 74.271 87.70500000000001 73.439V69.591H89.04400000000001V73.348Q89.04400000000001 74.18 89.46000000000001 74.57650000000001Q89.876 74.973 90.617 74.973Q91.436 74.973 91.93650000000001 74.4205Q92.43700000000001 73.868 92.43700000000001 72.828V69.591H93.77600000000001V76.0H92.46300000000001V75.038H92.25500000000001Q92.07300000000001 75.428 91.60500000000002 75.77250000000001Q91.13700000000001 76.117 90.227 76.117ZM99.45700000000001 76.182Q98.52100000000002 76.182 98.02050000000001 75.844Q97.52000000000001 75.506 97.27300000000001 75.09H97.06500000000001V76.0H95.75200000000001V66.9H97.09100000000001V70.462H97.299Q97.45500000000001 70.202 97.715 69.9615Q97.97500000000001 69.721 98.40400000000001 69.565Q98.83300000000001 69.409 99.45700000000001 69.409Q100.263 69.409 100.93900000000001 69.799Q101.61500000000001 70.189 102.018 70.93Q102.421 71.671 102.421 72.698V72.893Q102.421 73.933 102.01150000000001 74.6675Q101.602 75.402 100.9325 75.792Q100.263 76.182 99.45700000000001 76.182ZM99.06700000000001 75.012Q99.93800000000002 75.012 100.50350000000002 74.453Q101.06900000000002 73.894 101.06900000000002 72.854V72.737Q101.06900000000002 71.71 100.51000000000002 71.151Q99.95100000000001 70.592 99.06700000000001 70.592Q98.209 70.592 97.6435 71.151Q97.078 71.71 97.078 72.737V72.854Q97.078 73.894 97.6435 74.453Q98.209 75.012 99.06700000000001 75.012ZM110.02600000000001 76.182Q108.804 76.182 107.998 75.636Q107.19200000000001 75.09 107.01 73.985L108.25800000000001 73.686Q108.36200000000001 74.219 108.60900000000001 74.531Q108.85600000000001 74.843 109.22650000000002 74.973Q109.59700000000001 75.103 110.02600000000001 75.103Q110.66300000000001 75.103 111.00750000000001 74.856Q111.352 74.609 111.352 74.219Q111.352 73.829 111.02700000000002 73.64699999999999Q110.70200000000001 73.465 110.06500000000001 73.348L109.623 73.27Q108.97300000000001 73.153 108.44000000000001 72.932Q107.90700000000001 72.711 107.595 72.321Q107.283 71.931 107.283 71.32Q107.283 70.41 107.959 69.90950000000001Q108.635 69.409 109.753 69.409Q110.83200000000001 69.409 111.5275 69.8965Q112.22300000000001 70.384 112.43100000000001 71.216L111.183 71.56700000000001Q111.066 70.982 110.68900000000001 70.7415Q110.31200000000001 70.501 109.753 70.501Q109.20700000000001 70.501 108.89500000000001 70.7025Q108.58300000000001 70.904 108.58300000000001 71.268Q108.58300000000001 71.658 108.88850000000001 71.84Q109.194 72.022 109.71400000000001 72.113L110.16900000000001 72.191Q110.858 72.308 111.43 72.516Q112.00200000000001 72.724 112.33350000000002 73.114Q112.665 73.504 112.665 74.154Q112.665 75.116 111.95 75.649Q111.235 76.182 110.02600000000001 76.182ZM116.63000000000001 76.0Q116.04500000000002 76.0 115.7005 75.649Q115.35600000000001 75.298 115.35600000000001 74.713V70.722H113.58800000000001V69.591H115.35600000000001V67.472H116.69500000000001V69.591H118.60600000000001V70.722H116.69500000000001V74.479Q116.69500000000001 74.869 117.05900000000001 74.869H118.39800000000001V76.0ZM122.168 76.182Q121.479 76.182 120.93950000000001 75.94800000000001Q120.4 75.714 120.0815 75.259Q119.763 74.804 119.763 74.154Q119.763 73.491 120.0815 73.0555Q120.4 72.62 120.9525 72.399Q121.505 72.178 122.20700000000001 72.178H124.157V71.762Q124.157 71.203 123.819 70.86500000000001Q123.48100000000001 70.527 122.779 70.527Q122.09 70.527 121.726 70.852Q121.36200000000001 71.177 121.245 71.697L119.997 71.294Q120.153 70.774 120.4975 70.3515Q120.842 69.929 121.414 69.66900000000001Q121.986 69.409 122.792 69.409Q124.04 69.409 124.755 70.04599999999999Q125.47 70.68299999999999 125.47 71.853V74.492Q125.47 74.882 125.834 74.882H126.38V76.0H125.379Q124.924 76.0 124.638 75.76599999999999Q124.352 75.532 124.352 75.129V75.09H124.157Q124.053 75.285 123.845 75.545Q123.637 75.805 123.23400000000001 75.99350000000001Q122.831 76.182 122.168 76.182ZM122.363 75.077Q123.169 75.077 123.663 74.6155Q124.157 74.154 124.157 73.348V73.218H122.285Q121.75200000000001 73.218 121.427 73.44550000000001Q121.102 73.673 121.102 74.115Q121.102 74.557 121.44 74.81700000000001Q121.778 75.077 122.363 75.077ZM130.085 76.0Q129.5 76.0 129.15550000000002 75.649Q128.811 75.298 128.811 74.713V70.722H127.043V69.591H128.811V67.472H130.15V69.591H132.061V70.722H130.15V74.479Q130.15 74.869 130.514 74.869H131.853V76.0ZM136.26000000000002 76.182Q135.038 76.182 134.23200000000003 75.636Q133.42600000000002 75.09 133.24400000000003 73.985L134.49200000000002 73.686Q134.596 74.219 134.84300000000002 74.531Q135.09 74.843 135.46050000000002 74.973Q135.83100000000002 75.103 136.26000000000002 75.103Q136.89700000000002 75.103 137.24150000000003 74.856Q137.586 74.609 137.586 74.219Q137.586 73.829 137.26100000000002 73.64699999999999Q136.936 73.465 136.299 73.348L135.85700000000003 73.27Q135.20700000000002 73.153 134.67400000000004 72.932Q134.14100000000002 72.711 133.829 72.321Q133.51700000000002 71.931 133.51700000000002 71.32Q133.51700000000002 70.41 134.19300000000004 69.90950000000001Q134.86900000000003 69.409 135.98700000000002 69.409Q137.066 69.409 137.7615 69.8965Q138.45700000000002 70.384 138.66500000000002 71.216L137.417 71.56700000000001Q137.3 70.982 136.923 70.7415Q136.54600000000002 70.501 135.98700000000002 70.501Q135.441 70.501 135.12900000000002 70.7025Q134.817 70.904 134.817 71.268Q134.817 71.658 135.1225 71.84Q135.42800000000003 72.022 135.948 72.113L136.40300000000002 72.191Q137.092 72.308 137.66400000000002 72.516Q138.23600000000002 72.724 138.5675 73.114Q138.899 73.504 138.899 74.154Q138.899 75.116 138.18400000000003 75.649Q137.46900000000002 76.182 136.26000000000002 76.182ZM144.09900000000002 73.33500000000001Q143.644 73.33500000000001 143.3385 73.036Q143.03300000000002 72.73700000000001 143.03300000000002 72.269Q143.03300000000002 71.801 143.3385 71.5085Q143.644 71.21600000000001 144.09900000000002 71.21600000000001Q144.554 71.21600000000001 144.85950000000003 71.51500000000001Q145.16500000000002 71.81400000000001 145.16500000000002 72.269Q145.16500000000002 72.73700000000001 144.85950000000003 73.036Q144.554 73.33500000000001 144.09900000000002 73.33500000000001ZM152.185 76.117Q151.45700000000002 76.117 150.88500000000002 75.792Q150.31300000000002 75.467 149.988 74.869Q149.663 74.271 149.663 73.439V69.591H151.002V73.348Q151.002 74.18 151.418 74.57650000000001Q151.834 74.973 152.57500000000002 74.973Q153.394 74.973 153.8945 74.4205Q154.395 73.868 154.395 72.828V69.591H155.734V76.0H154.42100000000002V75.038H154.21300000000002Q154.031 75.428 153.563 75.77250000000001Q153.095 76.117 152.185 76.117ZM157.70999999999998 78.6V69.591H159.02299999999997V70.514H159.23099999999997Q159.47799999999998 70.085 159.9785 69.747Q160.47899999999998 69.409 161.415 69.409Q162.22099999999998 69.409 162.89049999999997 69.799Q163.55999999999997 70.189 163.96949999999998 70.92349999999999Q164.379 71.658 164.379 72.698V72.893Q164.379 73.933 163.976 74.6675Q163.57299999999998 75.402 162.897 75.792Q162.22099999999998 76.182 161.415 76.182Q160.79099999999997 76.182 160.36199999999997 76.02600000000001Q159.933 75.87 159.673 75.62950000000001Q159.41299999999998 75.389 159.25699999999998 75.129H159.04899999999998V78.6ZM161.02499999999998 75.012Q161.909 75.012 162.468 74.453Q163.027 73.894 163.027 72.854V72.737Q163.027 71.71 162.4615 71.151Q161.896 70.592 161.02499999999998 70.592Q160.16699999999997 70.592 159.6015 71.151Q159.03599999999997 71.71 159.03599999999997 72.737V72.854Q159.03599999999997 73.894 159.6015 74.453Q160.16699999999997 75.012 161.02499999999998 75.012ZM168.695 76.182Q167.90200000000002 76.182 167.226 75.792Q166.55 75.402 166.1405 74.6675Q165.731 73.933 165.731 72.893V72.698Q165.731 71.671 166.13400000000001 70.93Q166.537 70.189 167.21300000000002 69.799Q167.889 69.409 168.695 69.409Q169.31900000000002 69.409 169.74150000000003 69.565Q170.16400000000002 69.721 170.437 69.9615Q170.71 70.202 170.853 70.462H171.061V66.9H172.4V76.0H171.08700000000002V75.09H170.87900000000002Q170.632 75.506 170.13150000000002 75.844Q169.631 76.182 168.695 76.182ZM169.072 75.012Q169.943 75.012 170.50850000000003 74.453Q171.074 73.894 171.074 72.854V72.737Q171.074 71.71 170.51500000000001 71.151Q169.95600000000002 70.592 169.072 70.592Q168.214 70.592 167.6485 71.151Q167.083 71.71 167.083 72.737V72.854Q167.083 73.894 167.6485 74.453Q168.214 75.012 169.072 75.012ZM176.365 76.182Q175.67600000000002 76.182 175.1365 75.94800000000001Q174.597 75.714 174.2785 75.259Q173.96 74.804 173.96 74.154Q173.96 73.491 174.2785 73.0555Q174.597 72.62 175.1495 72.399Q175.702 72.178 176.404 72.178H178.354V71.762Q178.354 71.203 178.01600000000002 70.86500000000001Q177.678 70.527 176.976 70.527Q176.287 70.527 175.923 70.852Q175.559 71.177 175.442 71.697L174.19400000000002 71.294Q174.35 70.774 174.6945 70.3515Q175.03900000000002 69.929 175.611 69.66900000000001Q176.183 69.409 176.989 69.409Q178.237 69.409 178.952 70.04599999999999Q179.667 70.68299999999999 179.667 71.853V74.492Q179.667 74.882 180.031 74.882H180.577V76.0H179.576Q179.121 76.0 178.835 75.76599999999999Q178.549 75.532 178.549 75.129V75.09H178.354Q178.25 75.285 178.042 75.545Q177.834 75.805 177.43099999999998 75.99350000000001Q177.028 76.182 176.365 76.182ZM176.56 75.077Q177.366 75.077 177.86 74.6155Q178.354 74.154 178.354 73.348V73.218H176.482Q175.949 73.218 175.62400000000002 73.44550000000001Q175.299 73.673 175.299 74.115Q175.299 74.557 175.637 74.81700000000001Q175.975 75.077 176.56 75.077ZM184.282 76.0Q183.697 76.0 183.35250000000002 75.649Q183.008 75.298 183.008 74.713V70.722H181.24V69.591H183.008V67.472H184.347V69.591H186.258V70.722H184.347V74.479Q184.347 74.869 184.711 74.869H186.05V76.0ZM190.769 76.182Q189.794 76.182 189.06600000000003 75.77250000000001Q188.33800000000002 75.363 187.9285 74.6155Q187.519 73.868 187.519 72.88V72.724Q187.519 71.723 187.92200000000003 70.9755Q188.32500000000002 70.228 189.04650000000004 69.8185Q189.76800000000003 69.409 190.717 69.409Q191.64000000000001 69.409 192.33550000000002 69.8185Q193.031 70.228 193.421 70.95599999999999Q193.811 71.684 193.811 72.659V73.166H188.88400000000001Q188.91000000000003 74.011 189.4495 74.5115Q189.989 75.012 190.79500000000002 75.012Q191.549 75.012 191.9325 74.674Q192.31600000000003 74.336 192.52400000000003 73.894L193.62900000000002 74.466Q193.44700000000003 74.83 193.10250000000002 75.233Q192.758 75.636 192.199 75.90899999999999Q191.64000000000001 76.182 190.769 76.182ZM188.89700000000002 72.139H192.44600000000003Q192.394 71.411 191.92600000000002 71.0015Q191.45800000000003 70.592 190.704 70.592Q189.95000000000002 70.592 189.4755 71.0015Q189.001 71.411 188.89700000000002 72.139ZM198.07500000000002 76.182Q197.28200000000004 76.182 196.60600000000005 75.792Q195.93000000000004 75.402 195.52050000000003 74.6675Q195.11100000000002 73.933 195.11100000000002 72.893V72.698Q195.11100000000002 71.671 195.514 70.93Q195.91700000000003 70.189 196.59300000000002 69.799Q197.26900000000003 69.409 198.07500000000002 69.409Q198.69900000000004 69.409 199.12150000000003 69.565Q199.54400000000004 69.721 199.81700000000004 69.9615Q200.09000000000003 70.202 200.23300000000003 70.462H200.44100000000003V66.9H201.78000000000003V76.0H200.46700000000004V75.09H200.25900000000004Q200.01200000000003 75.506 199.5115 75.844Q199.01100000000002 76.182 198.07500000000002 76.182ZM198.45200000000003 75.012Q199.32300000000004 75.012 199.88850000000002 74.453Q200.45400000000004 73.894 200.45400000000004 72.854V72.737Q200.45400000000004 71.71 199.89500000000004 71.151Q199.33600000000004 70.592 198.45200000000003 70.592Q197.59400000000002 70.592 197.0285 71.151Q196.46300000000002 71.71 196.46300000000002 72.737V72.854Q196.46300000000002 73.894 197.0285 74.453Q197.59400000000002 75.012 198.45200000000003 75.012ZM209.06000000000003 76.182Q208.37100000000004 76.182 207.83150000000003 75.94800000000001Q207.29200000000003 75.714 206.97350000000003 75.259Q206.65500000000003 74.804 206.65500000000003 74.154Q206.65500000000003 73.491 206.97350000000003 73.0555Q207.29200000000003 72.62 207.84450000000004 72.399Q208.39700000000002 72.178 209.09900000000002 72.178H211.04900000000004V71.762Q211.04900000000004 71.203 210.711 70.86500000000001Q210.37300000000002 70.527 209.67100000000002 70.527Q208.98200000000003 70.527 208.61800000000002 70.852Q208.25400000000002 71.177 208.13700000000003 71.697L206.88900000000004 71.294Q207.04500000000002 70.774 207.38950000000003 70.3515Q207.73400000000004 69.929 208.30600000000004 69.66900000000001Q208.87800000000001 69.409 209.68400000000003 69.409Q210.93200000000002 69.409 211.64700000000002 70.04599999999999Q212.36200000000002 70.68299999999999 212.36200000000002 71.853V74.492Q212.36200000000002 74.882 212.72600000000003 74.882H213.27200000000002V76.0H212.27100000000002Q211.81600000000003 76.0 211.53000000000003 75.76599999999999Q211.24400000000003 75.532 211.24400000000003 75.129V75.09H211.04900000000004Q210.94500000000002 75.285 210.73700000000002 75.545Q210.52900000000002 75.805 210.12600000000003 75.99350000000001Q209.723 76.182 209.06000000000003 76.182ZM209.25500000000002 75.077Q210.06100000000004 75.077 210.55500000000004 74.6155Q211.04900000000004 74.154 211.04900000000004 73.348V73.218H209.17700000000002Q208.64400000000003 73.218 208.31900000000002 73.44550000000001Q207.99400000000003 73.673 207.99400000000003 74.115Q207.99400000000003 74.557 208.33200000000002 74.81700000000001Q208.67000000000002 75.077 209.25500000000002 75.077ZM217.02900000000002 76.117Q216.30100000000004 76.117 215.72900000000004 75.792Q215.15700000000004 75.467 214.83200000000005 74.869Q214.50700000000003 74.271 214.50700000000003 73.439V69.591H215.84600000000003V73.348Q215.84600000000003 74.18 216.26200000000003 74.57650000000001Q216.67800000000003 74.973 217.41900000000004 74.973Q218.23800000000003 74.973 218.73850000000004 74.4205Q219.23900000000003 73.868 219.23900000000003 72.828V69.591H220.57800000000003V76.0H219.26500000000004V75.038H219.05700000000004Q218.87500000000003 75.428 218.40700000000004 75.77250000000001Q217.93900000000002 76.117 217.02900000000002 76.117ZM224.95900000000003 76.0Q224.37400000000002 76.0 224.02950000000004 75.649Q223.68500000000003 75.298 223.68500000000003 74.713V70.722H221.91700000000003V69.591H223.68500000000003V67.472H225.02400000000003V69.591H226.93500000000003V70.722H225.02400000000003V74.479Q225.02400000000003 74.869 225.38800000000003 74.869H226.72700000000003V76.0ZM231.51100000000002 76.182Q230.54900000000004 76.182 229.80150000000003 75.7855Q229.05400000000003 75.389 228.62500000000003 74.648Q228.19600000000003 73.907 228.19600000000003 72.893V72.698Q228.19600000000003 71.684 228.62500000000003 70.9495Q229.05400000000003 70.215 229.80150000000003 69.81200000000001Q230.54900000000004 69.409 231.51100000000002 69.409Q232.47300000000004 69.409 233.22700000000003 69.81200000000001Q233.98100000000005 70.215 234.41000000000003 70.9495Q234.83900000000003 71.684 234.83900000000003 72.698V72.893Q234.83900000000003 73.907 234.41000000000003 74.648Q233.98100000000005 75.389 233.22700000000003 75.7855Q232.47300000000004 76.182 231.51100000000002 76.182ZM231.51100000000002 74.986Q232.39500000000004 74.986 232.94750000000005 74.4205Q233.50000000000003 73.855 233.50000000000003 72.854V72.737Q233.50000000000003 71.736 232.95400000000004 71.1705Q232.40800000000004 70.605 231.51100000000002 70.605Q230.64000000000004 70.605 230.08750000000003 71.1705Q229.53500000000003 71.736 229.53500000000003 72.737V72.854Q229.53500000000003 73.855 230.08750000000003 74.4205Q230.64000000000004 74.986 231.51100000000002 74.986ZM236.50300000000004 76.0V69.591H237.81600000000003V70.345H238.02400000000003Q238.20600000000005 70.007 238.60900000000004 69.747Q239.01200000000006 69.487 239.70100000000005 69.487Q240.41600000000005 69.487 240.85150000000004 69.7795Q241.28700000000003 70.072 241.50800000000004 70.527H241.71600000000004Q241.93700000000004 70.085 242.35950000000003 69.786Q242.78200000000004 69.487 243.56200000000004 69.487Q244.18600000000004 69.487 244.66700000000003 69.7405Q245.14800000000005 69.994 245.43400000000005 70.4945Q245.72000000000006 70.995 245.72000000000006 71.736V76.0H244.38100000000003V71.84Q244.38100000000003 71.255 244.06250000000003 70.9365Q243.74400000000003 70.618 243.15900000000005 70.618Q242.53500000000005 70.618 242.15800000000004 71.021Q241.78100000000003 71.424 241.78100000000003 72.178V76.0H240.44200000000004V71.84Q240.44200000000004 71.255 240.12350000000004 70.9365Q239.80500000000004 70.618 239.22000000000006 70.618Q238.59600000000003 70.618 238.21900000000005 71.021Q237.84200000000004 71.424 237.84200000000004 72.178V76.0ZM249.63300000000004 76.182Q248.94400000000005 76.182 248.40450000000004 75.94800000000001Q247.86500000000004 75.714 247.54650000000004 75.259Q247.22800000000004 74.804 247.22800000000004 74.154Q247.22800000000004 73.491 247.54650000000004 73.0555Q247.86500000000004 72.62 248.41750000000002 72.399Q248.97000000000003 72.178 249.67200000000003 72.178H251.62200000000004V71.762Q251.62200000000004 71.203 251.28400000000005 70.86500000000001Q250.94600000000003 70.527 250.24400000000003 70.527Q249.55500000000004 70.527 249.19100000000003 70.852Q248.82700000000003 71.177 248.71000000000004 71.697L247.46200000000005 71.294Q247.61800000000002 70.774 247.96250000000003 70.3515Q248.30700000000004 69.929 248.87900000000002 69.66900000000001Q249.45100000000002 69.409 250.25700000000003 69.409Q251.50500000000002 69.409 252.22000000000003 70.04599999999999Q252.93500000000003 70.68299999999999 252.93500000000003 71.853V74.492Q252.93500000000003 74.882 253.29900000000004 74.882H253.84500000000003V76.0H252.84400000000002Q252.38900000000004 76.0 252.10300000000004 75.76599999999999Q251.81700000000004 75.532 251.81700000000004 75.129V75.09H251.62200000000004Q251.51800000000003 75.285 251.31000000000003 75.545Q251.10200000000003 75.805 250.699 75.99350000000001Q250.29600000000002 76.182 249.63300000000004 76.182ZM249.82800000000003 75.077Q250.63400000000004 75.077 251.12800000000004 74.6155Q251.62200000000004 74.154 251.62200000000004 73.348V73.218H249.75000000000003Q249.21700000000004 73.218 248.89200000000005 73.44550000000001Q248.56700000000004 73.673 248.56700000000004 74.115Q248.56700000000004 74.557 248.90500000000003 74.81700000000001Q249.24300000000002 75.077 249.82800000000003 75.077ZM257.55 76.0Q256.96500000000003 76.0 256.62050000000005 75.649Q256.27600000000007 75.298 256.27600000000007 74.713V70.722H254.50800000000004V69.591H256.27600000000007V67.472H257.61500000000007V69.591H259.52600000000007V70.722H257.61500000000007V74.479Q257.61500000000007 74.869 257.97900000000004 74.869H259.31800000000004V76.0ZM261.09900000000005 76.0V69.591H262.43800000000005V76.0ZM261.77500000000003 68.72Q261.38500000000005 68.72 261.11850000000004 68.4665Q260.85200000000003 68.213 260.85200000000003 67.81Q260.85200000000003 67.407 261.11850000000004 67.15350000000001Q261.38500000000005 66.9 261.77500000000003 66.9Q262.17800000000005 66.9 262.43800000000005 67.15350000000001Q262.69800000000004 67.407 262.69800000000004 67.81Q262.69800000000004 68.213 262.43800000000005 68.4665Q262.17800000000005 68.72 261.77500000000003 68.72ZM267.40400000000005 76.182Q266.48100000000005 76.182 265.73350000000005 75.792Q264.9860000000001 75.402 264.55050000000006 74.661Q264.11500000000007 73.92 264.11500000000007 72.88V72.711Q264.11500000000007 71.671 264.55050000000006 70.9365Q264.9860000000001 70.202 265.73350000000005 69.8055Q266.48100000000005 69.409 267.40400000000005 69.409Q268.32700000000006 69.409 268.9770000000001 69.747Q269.62700000000007 70.085 270.02350000000007 70.644Q270.4200000000001 71.203 270.5370000000001 71.879L269.2370000000001 72.152Q269.1720000000001 71.723 268.96400000000006 71.372Q268.7560000000001 71.021 268.3790000000001 70.813Q268.00200000000007 70.605 267.43000000000006 70.605Q266.8710000000001 70.605 266.4225000000001 70.85849999999999Q265.9740000000001 71.112 265.71400000000006 71.5865Q265.45400000000006 72.061 265.45400000000006 72.737V72.854Q265.45400000000006 73.53 265.71400000000006 74.011Q265.9740000000001 74.492 266.4225000000001 74.739Q266.8710000000001 74.986 267.43000000000006 74.986Q268.2750000000001 74.986 268.7170000000001 74.5505Q269.1590000000001 74.115 269.27600000000007 73.439L270.5760000000001 73.738Q270.4200000000001 74.401 270.02350000000007 74.96000000000001Q269.62700000000007 75.519 268.9770000000001 75.85050000000001Q268.32700000000006 76.182 267.40400000000005 76.182ZM274.112 76.182Q273.42300000000006 76.182 272.8835 75.94800000000001Q272.34400000000005 75.714 272.0255000000001 75.259Q271.70700000000005 74.804 271.70700000000005 74.154Q271.70700000000005 73.491 272.0255000000001 73.0555Q272.34400000000005 72.62 272.89650000000006 72.399Q273.44900000000007 72.178 274.15100000000007 72.178H276.10100000000006V71.762Q276.10100000000006 71.203 275.76300000000003 70.86500000000001Q275.42500000000007 70.527 274.72300000000007 70.527Q274.03400000000005 70.527 273.6700000000001 70.852Q273.30600000000004 71.177 273.189 71.697L271.94100000000003 71.294Q272.09700000000004 70.774 272.4415 70.3515Q272.78600000000006 69.929 273.35800000000006 69.66900000000001Q273.93000000000006 69.409 274.73600000000005 69.409Q275.98400000000004 69.409 276.69900000000007 70.04599999999999Q277.41400000000004 70.68299999999999 277.41400000000004 71.853V74.492Q277.41400000000004 74.882 277.778 74.882H278.32400000000007V76.0H277.32300000000004Q276.86800000000005 76.0 276.58200000000005 75.76599999999999Q276.29600000000005 75.532 276.29600000000005 75.129V75.09H276.10100000000006Q275.99700000000007 75.285 275.7890000000001 75.545Q275.5810000000001 75.805 275.17800000000005 75.99350000000001Q274.77500000000003 76.182 274.112 76.182ZM274.3070000000001 75.077Q275.11300000000006 75.077 275.6070000000001 74.6155Q276.10100000000006 74.154 276.10100000000006 73.348V73.218H274.22900000000004Q273.696 73.218 273.37100000000004 73.44550000000001Q273.04600000000005 73.673 273.04600000000005 74.115Q273.04600000000005 74.557 273.384 74.81700000000001Q273.72200000000004 75.077 274.3070000000001 75.077ZM279.6240000000001 76.0V66.9H280.9630000000001V76.0ZM282.95200000000006 76.0V66.9H284.29100000000005V76.0ZM287.021 78.6V77.43H290.596Q290.96000000000004 77.43 290.96000000000004 77.04V75.064H290.752Q290.63500000000005 75.324 290.39450000000005 75.56450000000001Q290.15400000000005 75.805 289.75100000000003 75.96100000000001Q289.348 76.117 288.737 76.117Q288.009 76.117 287.437 75.792Q286.865 75.467 286.54 74.869Q286.21500000000003 74.271 286.21500000000003 73.452V69.591H287.55400000000003V73.348Q287.55400000000003 74.18 287.97 74.57650000000001Q288.386 74.973 289.127 74.973Q289.946 74.973 290.4465 74.42699999999999Q290.947 73.881 290.947 72.841V69.591H292.28600000000006V77.313Q292.28600000000006 77.898 291.9415 78.249Q291.59700000000004 78.6 290.999 78.6Z"><title>Live GitHub stats · updated automatically</title></path><g class="k-rise" style="animation-delay:0.10s"><rect x="32.0" y="100" width="197.0" height="108" rx="14" fill="#ffffff" fill-opacity=".025" stroke="#ffffff" stroke-opacity=".08"/><path fill="#b3a5a7" d="M54.043 130.182Q53.016 130.182 52.223 129.81799999999998Q51.43 129.454 50.9815 128.7455Q50.533 128.037 50.533 127.023V126.698H51.924V127.023Q51.924 127.985 52.5025 128.466Q53.081 128.947 54.043 128.947Q55.018 128.947 55.512 128.5375Q56.006 128.128 56.006 127.478Q56.006 127.049 55.772 126.77600000000001Q55.538 126.503 55.108999999999995 126.34049999999999Q54.68 126.178 54.082 126.035L53.601 125.918Q52.73 125.71 52.0865 125.4045Q51.443 125.099 51.092 124.592Q50.741 124.085 50.741 123.292Q50.741 122.486 51.1375 121.914Q51.534 121.342 52.236000000000004 121.03Q52.938 120.718 53.887 120.718Q54.836 120.718 55.5835 121.043Q56.331 121.368 56.760000000000005 122.005Q57.189 122.642 57.189 123.604V124.072H55.798V123.604Q55.798 123.019 55.557500000000005 122.655Q55.317 122.291 54.888000000000005 122.122Q54.459 121.953 53.887 121.953Q53.055 121.953 52.5935 122.2975Q52.132 122.642 52.132 123.253Q52.132 123.669 52.3335 123.93549999999999Q52.535 124.202 52.925 124.37100000000001Q53.315 124.54 53.9 124.67L54.381 124.787Q55.265 124.982 55.941 125.2875Q56.617 125.593 57.007 126.113Q57.397 126.633 57.397 127.452Q57.397 128.271 56.9875 128.882Q56.578 129.493 55.824 129.83749999999998Q55.07 130.182 54.043 130.182ZM61.31 130.0Q60.725 130.0 60.3805 129.649Q60.036 129.298 60.036 128.713V124.722H58.268V123.591H60.036V121.472H61.375V123.591H63.286V124.722H61.375V128.479Q61.375 128.869 61.739000000000004 128.869H63.078V130.0ZM66.848 130.182Q66.15899999999999 130.182 65.61949999999999 129.94799999999998Q65.08 129.714 64.7615 129.25900000000001Q64.443 128.804 64.443 128.154Q64.443 127.491 64.7615 127.0555Q65.08 126.62 65.6325 126.399Q66.185 126.178 66.887 126.178H68.83699999999999V125.762Q68.83699999999999 125.203 68.499 124.86500000000001Q68.161 124.527 67.45899999999999 124.527Q66.77 124.527 66.406 124.852Q66.042 125.177 65.925 125.697L64.67699999999999 125.294Q64.833 124.774 65.1775 124.3515Q65.52199999999999 123.929 66.094 123.66900000000001Q66.666 123.409 67.472 123.409Q68.72 123.409 69.435 124.04599999999999Q70.14999999999999 124.68299999999999 70.14999999999999 125.853V128.492Q70.14999999999999 128.882 70.514 128.882H71.06V130.0H70.059Q69.604 130.0 69.318 129.76600000000002Q69.032 129.532 69.032 129.129V129.09H68.83699999999999Q68.73299999999999 129.285 68.52499999999999 129.54500000000002Q68.317 129.805 67.91399999999999 129.99349999999998Q67.511 130.182 66.848 130.182ZM67.04299999999999 129.077Q67.84899999999999 129.077 68.34299999999999 128.6155Q68.83699999999999 128.154 68.83699999999999 127.348V127.218H66.96499999999999Q66.43199999999999 127.218 66.107 127.44550000000001Q65.782 127.673 65.782 128.115Q65.782 128.557 66.12 128.817Q66.458 129.077 67.04299999999999 129.077ZM72.36 130.0V123.591H73.673V124.345H73.881Q74.037 123.94200000000001 74.3815 123.7535Q74.726 123.565 75.233 123.565H76.0V124.774H75.181Q74.531 124.774 74.11500000000001 125.1315Q73.699 125.489 73.699 126.23V130.0ZM80.017 130.182Q78.79499999999999 130.182 77.98899999999999 129.636Q77.18299999999999 129.09 77.00099999999999 127.985L78.249 127.686Q78.353 128.219 78.6 128.531Q78.847 128.843 79.2175 128.973Q79.588 129.103 80.017 129.103Q80.654 129.103 80.99849999999999 128.856Q81.34299999999999 128.609 81.34299999999999 128.219Q81.34299999999999 127.829 81.018 127.64699999999999Q80.693 127.465 80.056 127.348L79.61399999999999 127.27Q78.964 127.153 78.431 126.932Q77.898 126.711 77.58599999999998 126.321Q77.27399999999999 125.931 77.27399999999999 125.32Q77.27399999999999 124.41 77.94999999999999 123.90950000000001Q78.62599999999999 123.409 79.74399999999999 123.409Q80.823 123.409 81.51849999999999 123.8965Q82.214 124.384 82.422 125.216L81.17399999999999 125.56700000000001Q81.05699999999999 124.982 80.67999999999999 124.7415Q80.303 124.501 79.74399999999999 124.501Q79.198 124.501 78.886 124.7025Q78.574 124.904 78.574 125.268Q78.574 125.658 78.8795 125.84Q79.18499999999999 126.022 79.705 126.113L80.16 126.191Q80.84899999999999 126.308 81.42099999999999 126.516Q81.993 126.724 82.3245 127.114Q82.65599999999999 127.504 82.65599999999999 128.154Q82.65599999999999 129.116 81.94099999999999 129.649Q81.22599999999998 130.182 80.017 130.182Z"><title>Stars</title></path><path fill="#ef4444" d="M61.016 172.476Q56.8 172.476 54.25 170.147Q51.7 167.818 51.7 163.09199999999998V157.108Q51.7 152.518 54.25 150.12099999999998Q56.8 147.724 61.016 147.724Q65.266 147.724 67.799 150.12099999999998Q70.332 152.518 70.332 157.108V163.09199999999998Q70.332 167.818 67.799 170.147Q65.266 172.476 61.016 172.476ZM61.016 168.6Q63.566 168.6 64.773 167.20600000000002Q65.98 165.812 65.98 163.228V156.904Q65.98 154.286 64.637 152.94299999999998Q63.294 151.6 61.016 151.6Q58.67 151.6 57.361000000000004 152.994Q56.052 154.388 56.052 156.904V163.228Q56.052 165.914 57.293 167.257Q58.534 168.6 61.016 168.6Z"><title>0</title></path><rect x="50.0" y="186" width="161.0" height="5" rx="2.5" fill="#ffffff" fill-opacity=".08"/><rect class="k-grow" x="50.0" y="186" width="9.7" height="5" rx="2.5" fill="#ef4444" style="animation-delay:0.35s"/></g><g class="k-rise" style="animation-delay:0.18s"><rect x="245.0" y="100" width="197.0" height="108" rx="14" fill="#ffffff" fill-opacity=".025" stroke="#ffffff" stroke-opacity=".08"/><path fill="#b3a5a7" d="M267.329 130.182Q265.665 130.182 264.69 129.2395Q263.715 128.297 263.715 126.516V124.384Q263.715 122.603 264.69 121.6605Q265.665 120.718 267.329 120.718Q268.967 120.718 269.85749999999996 121.628Q270.748 122.538 270.748 124.111V124.189H269.35699999999997V124.072Q269.35699999999997 123.149 268.8565 122.564Q268.356 121.979 267.329 121.979Q266.289 121.979 265.704 122.6095Q265.119 123.24 265.119 124.358V126.542Q265.119 127.647 265.704 128.284Q266.289 128.921 267.329 128.921Q268.356 128.921 268.8565 128.3295Q269.35699999999997 127.738 269.35699999999997 126.828V126.607H270.748V126.789Q270.748 128.362 269.85749999999996 129.272Q268.967 130.182 267.329 130.182ZM275.34999999999997 130.182Q274.388 130.182 273.6405 129.7855Q272.893 129.389 272.46399999999994 128.648Q272.03499999999997 127.907 272.03499999999997 126.893V126.698Q272.03499999999997 125.684 272.46399999999994 124.9495Q272.893 124.215 273.6405 123.81200000000001Q274.388 123.409 275.34999999999997 123.409Q276.31199999999995 123.409 277.066 123.81200000000001Q277.82 124.215 278.249 124.9495Q278.678 125.684 278.678 126.698V126.893Q278.678 127.907 278.249 128.648Q277.82 129.389 277.066 129.7855Q276.31199999999995 130.182 275.34999999999997 130.182ZM275.34999999999997 128.986Q276.234 128.986 276.7865 128.4205Q277.339 127.855 277.339 126.854V126.737Q277.339 125.736 276.793 125.1705Q276.24699999999996 124.605 275.34999999999997 124.605Q274.479 124.605 273.9265 125.1705Q273.37399999999997 125.736 273.37399999999997 126.737V126.854Q273.37399999999997 127.855 273.9265 128.4205Q274.479 128.986 275.34999999999997 128.986ZM280.342 130.0V123.591H281.655V124.553H281.863Q282.04499999999996 124.163 282.513 123.82499999999999Q282.981 123.487 283.904 123.487Q284.632 123.487 285.1975 123.812Q285.763 124.137 286.08799999999997 124.7285Q286.413 125.32 286.413 126.152V130.0H285.074V126.256Q285.074 125.424 284.658 125.0275Q284.24199999999996 124.631 283.514 124.631Q282.68199999999996 124.631 282.18149999999997 125.17699999999999Q281.681 125.723 281.681 126.763V130.0ZM290.74199999999996 130.0Q290.157 130.0 289.8125 129.649Q289.46799999999996 129.298 289.46799999999996 128.713V124.722H287.7V123.591H289.46799999999996V121.472H290.807V123.591H292.71799999999996V124.722H290.807V128.479Q290.807 128.869 291.171 128.869H292.51V130.0ZM294.291 130.0V123.591H295.604V124.345H295.812Q295.968 123.94200000000001 296.3125 123.7535Q296.657 123.565 297.164 123.565H297.931V124.774H297.112Q296.462 124.774 296.046 125.1315Q295.63 125.489 295.63 126.23V130.0ZM299.322 130.0V123.591H300.661V130.0ZM299.998 122.72Q299.608 122.72 299.3415 122.4665Q299.075 122.213 299.075 121.81Q299.075 121.407 299.3415 121.15350000000001Q299.608 120.9 299.998 120.9Q300.401 120.9 300.661 121.15350000000001Q300.921 121.407 300.921 121.81Q300.921 122.213 300.661 122.4665Q300.401 122.72 299.998 122.72ZM306.35499999999996 130.182Q305.419 130.182 304.9185 129.844Q304.41799999999995 129.506 304.171 129.09H303.96299999999997V130.0H302.65V120.9H303.989V124.462H304.197Q304.35299999999995 124.202 304.61299999999994 123.9615Q304.873 123.721 305.302 123.565Q305.731 123.409 306.35499999999996 123.409Q307.161 123.409 307.837 123.799Q308.513 124.189 308.91599999999994 124.93Q309.31899999999996 125.671 309.31899999999996 126.698V126.893Q309.31899999999996 127.933 308.9095 128.6675Q308.5 129.402 307.83050000000003 129.79199999999997Q307.161 130.182 306.35499999999996 130.182ZM305.965 129.012Q306.83599999999996 129.012 307.40149999999994 128.453Q307.967 127.894 307.967 126.854V126.737Q307.967 125.71 307.408 125.151Q306.849 124.592 305.965 124.592Q305.10699999999997 124.592 304.5415 125.151Q303.976 125.71 303.976 126.737V126.854Q303.976 127.894 304.5415 128.453Q305.10699999999997 129.012 305.965 129.012ZM313.44 130.117Q312.712 130.117 312.14 129.792Q311.568 129.467 311.243 128.869Q310.918 128.271 310.918 127.439V123.591H312.257V127.348Q312.257 128.18 312.673 128.5765Q313.089 128.973 313.83 128.973Q314.649 128.973 315.1495 128.4205Q315.65 127.868 315.65 126.828V123.591H316.98900000000003V130.0H315.676V129.038H315.468Q315.286 129.428 314.818 129.77249999999998Q314.35 130.117 313.44 130.117ZM321.36999999999995 130.0Q320.78499999999997 130.0 320.4405 129.649Q320.096 129.298 320.096 128.713V124.722H318.328V123.591H320.096V121.472H321.435V123.591H323.346V124.722H321.435V128.479Q321.435 128.869 321.799 128.869H323.138V130.0ZM324.919 130.0V123.591H326.258V130.0ZM325.59499999999997 122.72Q325.205 122.72 324.9385 122.4665Q324.67199999999997 122.213 324.67199999999997 121.81Q324.67199999999997 121.407 324.9385 121.15350000000001Q325.205 120.9 325.59499999999997 120.9Q325.998 120.9 326.258 121.15350000000001Q326.518 121.407 326.518 121.81Q326.518 122.213 326.258 122.4665Q325.998 122.72 325.59499999999997 122.72ZM331.25 130.182Q330.288 130.182 329.5405 129.7855Q328.793 129.389 328.36400000000003 128.648Q327.935 127.907 327.935 126.893V126.698Q327.935 125.684 328.36400000000003 124.9495Q328.793 124.215 329.5405 123.81200000000001Q330.288 123.409 331.25 123.409Q332.212 123.409 332.966 123.81200000000001Q333.72 124.215 334.149 124.9495Q334.57800000000003 125.684 334.57800000000003 126.698V126.893Q334.57800000000003 127.907 334.149 128.648Q333.72 129.389 332.966 129.7855Q332.212 130.182 331.25 130.182ZM331.25 128.986Q332.134 128.986 332.6865 128.4205Q333.23900000000003 127.855 333.23900000000003 126.854V126.737Q333.23900000000003 125.736 332.693 125.1705Q332.147 124.605 331.25 124.605Q330.379 124.605 329.8265 125.1705Q329.274 125.736 329.274 126.737V126.854Q329.274 127.855 329.8265 128.4205Q330.379 128.986 331.25 128.986ZM336.242 130.0V123.591H337.555V124.553H337.76300000000003Q337.945 124.163 338.413 123.82499999999999Q338.88100000000003 123.487 339.80400000000003 123.487Q340.53200000000004 123.487 341.0975 123.812Q341.663 124.137 341.98800000000006 124.7285Q342.31300000000005 125.32 342.31300000000005 126.152V130.0H340.97400000000005V126.256Q340.97400000000005 125.424 340.558 125.0275Q340.142 124.631 339.41400000000004 124.631Q338.582 124.631 338.0815 125.17699999999999Q337.581 125.723 337.581 126.763V130.0ZM346.863 130.182Q345.641 130.182 344.83500000000004 129.636Q344.029 129.09 343.84700000000004 127.985L345.095 127.686Q345.199 128.219 345.446 128.531Q345.69300000000004 128.843 346.06350000000003 128.973Q346.434 129.103 346.863 129.103Q347.5 129.103 347.84450000000004 128.856Q348.189 128.609 348.189 128.219Q348.189 127.829 347.86400000000003 127.64699999999999Q347.53900000000004 127.465 346.90200000000004 127.348L346.46000000000004 127.27Q345.81 127.153 345.27700000000004 126.932Q344.744 126.711 344.432 126.321Q344.12 125.931 344.12 125.32Q344.12 124.41 344.79600000000005 123.90950000000001Q345.47200000000004 123.409 346.59000000000003 123.409Q347.66900000000004 123.409 348.3645 123.8965Q349.06 124.384 349.26800000000003 125.216L348.02000000000004 125.56700000000001Q347.903 124.982 347.526 124.7415Q347.149 124.501 346.59000000000003 124.501Q346.04400000000004 124.501 345.732 124.7025Q345.42 124.904 345.42 125.268Q345.42 125.658 345.7255 125.84Q346.031 126.022 346.55100000000004 126.113L347.00600000000003 126.191Q347.69500000000005 126.308 348.26700000000005 126.516Q348.839 126.724 349.1705 127.114Q349.502 127.504 349.502 128.154Q349.502 129.116 348.78700000000003 129.649Q348.072 130.182 346.863 130.182Z"><title>Contributions</title></path><path fill="#f87171" d="M275.58 172.0V167.172H263.884V162.14L272.112 148.2H279.932V163.296H283.876V167.172H279.932V172.0ZM268.032 163.296H275.58V150.988H274.968L268.032 162.752Z"><title>4</title></path><rect x="263.0" y="186" width="161.0" height="5" rx="2.5" fill="#ffffff" fill-opacity=".08"/><rect class="k-grow" x="263.0" y="186" width="41.7" height="5" rx="2.5" fill="#f87171" style="animation-delay:0.43s"/></g><g class="k-rise" style="animation-delay:0.26s"><rect x="458.0" y="100" width="197.0" height="108" rx="14" fill="#ffffff" fill-opacity=".025" stroke="#ffffff" stroke-opacity=".08"/><path fill="#b3a5a7" d="M476.949 130.0V120.9H480.771Q481.616 120.9 482.2595 121.1925Q482.903 121.485 483.2605 122.031Q483.618 122.577 483.618 123.331V123.474Q483.618 124.332 483.20849999999996 124.84549999999999Q482.799 125.359 482.214 125.56700000000001V125.775Q482.708 125.801 483.007 126.10650000000001Q483.306 126.412 483.306 126.984V130.0H481.889V127.179Q481.889 126.828 481.707 126.62Q481.525 126.412 481.122 126.412H478.353V130.0ZM478.353 125.138H480.615Q481.369 125.138 481.785 124.75450000000001Q482.201 124.371 482.201 123.708V123.604Q482.201 122.941 481.79150000000004 122.5575Q481.382 122.174 480.615 122.174H478.353ZM488.142 130.182Q487.16700000000003 130.182 486.439 129.77249999999998Q485.711 129.363 485.30150000000003 128.6155Q484.892 127.868 484.892 126.88V126.724Q484.892 125.723 485.295 124.9755Q485.69800000000004 124.228 486.4195 123.8185Q487.141 123.409 488.09000000000003 123.409Q489.01300000000003 123.409 489.7085 123.8185Q490.404 124.228 490.794 124.95599999999999Q491.184 125.684 491.184 126.659V127.166H486.257Q486.283 128.011 486.8225 128.5115Q487.362 129.012 488.168 129.012Q488.922 129.012 489.30550000000005 128.674Q489.689 128.336 489.897 127.894L491.002 128.466Q490.82 128.83 490.4755 129.233Q490.13100000000003 129.636 489.572 129.909Q489.01300000000003 130.182 488.142 130.182ZM486.27 126.139H489.819Q489.767 125.411 489.299 125.0015Q488.831 124.592 488.077 124.592Q487.32300000000004 124.592 486.84850000000006 125.0015Q486.374 125.411 486.27 126.139ZM492.796 132.6V123.591H494.109V124.514H494.317Q494.56399999999996 124.085 495.06449999999995 123.747Q495.565 123.409 496.501 123.409Q497.307 123.409 497.9765 123.799Q498.646 124.189 499.0555 124.92349999999999Q499.465 125.658 499.465 126.698V126.893Q499.465 127.933 499.062 128.6675Q498.659 129.402 497.983 129.79199999999997Q497.307 130.182 496.501 130.182Q495.877 130.182 495.448 130.026Q495.019 129.87 494.759 129.6295Q494.49899999999997 129.389 494.343 129.129H494.135V132.6ZM496.111 129.012Q496.995 129.012 497.554 128.453Q498.113 127.894 498.113 126.854V126.737Q498.113 125.71 497.5475 125.151Q496.98199999999997 124.592 496.111 124.592Q495.253 124.592 494.6875 125.151Q494.122 125.71 494.122 126.737V126.854Q494.122 127.894 494.6875 128.453Q495.253 129.012 496.111 129.012ZM504.132 130.182Q503.17 130.182 502.4225 129.7855Q501.675 129.389 501.246 128.648Q500.817 127.907 500.817 126.893V126.698Q500.817 125.684 501.246 124.9495Q501.675 124.215 502.4225 123.81200000000001Q503.17 123.409 504.132 123.409Q505.094 123.409 505.848 123.81200000000001Q506.60200000000003 124.215 507.03100000000006 124.9495Q507.46000000000004 125.684 507.46000000000004 126.698V126.893Q507.46000000000004 127.907 507.03100000000006 128.648Q506.60200000000003 129.389 505.848 129.7855Q505.094 130.182 504.132 130.182ZM504.132 128.986Q505.016 128.986 505.56850000000003 128.4205Q506.12100000000004 127.855 506.12100000000004 126.854V126.737Q506.12100000000004 125.736 505.57500000000005 125.1705Q505.029 124.605 504.132 124.605Q503.261 124.605 502.7085 125.1705Q502.156 125.736 502.156 126.737V126.854Q502.156 127.855 502.7085 128.4205Q503.261 128.986 504.132 128.986ZM511.74999999999994 130.182Q510.52799999999996 130.182 509.722 129.636Q508.91599999999994 129.09 508.734 127.985L509.98199999999997 127.686Q510.08599999999996 128.219 510.33299999999997 128.531Q510.58 128.843 510.9505 128.973Q511.32099999999997 129.103 511.74999999999994 129.103Q512.387 129.103 512.7315 128.856Q513.076 128.609 513.076 128.219Q513.076 127.829 512.751 127.64699999999999Q512.4259999999999 127.465 511.789 127.348L511.347 127.27Q510.69699999999995 127.153 510.164 126.932Q509.631 126.711 509.31899999999996 126.321Q509.00699999999995 125.931 509.00699999999995 125.32Q509.00699999999995 124.41 509.683 123.90950000000001Q510.359 123.409 511.477 123.409Q512.5559999999999 123.409 513.2515 123.8965Q513.947 124.384 514.155 125.216L512.9069999999999 125.56700000000001Q512.79 124.982 512.413 124.7415Q512.036 124.501 511.477 124.501Q510.931 124.501 510.61899999999997 124.7025Q510.30699999999996 124.904 510.30699999999996 125.268Q510.30699999999996 125.658 510.61249999999995 125.84Q510.91799999999995 126.022 511.438 126.113L511.893 126.191Q512.582 126.308 513.154 126.516Q513.726 126.724 514.0575 127.114Q514.389 127.504 514.389 128.154Q514.389 129.116 513.674 129.649Q512.959 130.182 511.74999999999994 130.182ZM515.9490000000001 130.0V123.591H517.288V130.0ZM516.625 122.72Q516.235 122.72 515.9685 122.4665Q515.702 122.213 515.702 121.81Q515.702 121.407 515.9685 121.15350000000001Q516.235 120.9 516.625 120.9Q517.028 120.9 517.288 121.15350000000001Q517.548 121.407 517.548 121.81Q517.548 122.213 517.288 122.4665Q517.028 122.72 516.625 122.72ZM521.682 130.0Q521.097 130.0 520.7525 129.649Q520.408 129.298 520.408 128.713V124.722H518.64V123.591H520.408V121.472H521.747V123.591H523.658V124.722H521.747V128.479Q521.747 128.869 522.111 128.869H523.4499999999999V130.0ZM528.234 130.182Q527.272 130.182 526.5245 129.7855Q525.777 129.389 525.3480000000001 128.648Q524.9190000000001 127.907 524.9190000000001 126.893V126.698Q524.9190000000001 125.684 525.3480000000001 124.9495Q525.777 124.215 526.5245 123.81200000000001Q527.272 123.409 528.234 123.409Q529.196 123.409 529.95 123.81200000000001Q530.7040000000001 124.215 531.133 124.9495Q531.562 125.684 531.562 126.698V126.893Q531.562 127.907 531.133 128.648Q530.7040000000001 129.389 529.95 129.7855Q529.196 130.182 528.234 130.182ZM528.234 128.986Q529.118 128.986 529.6705000000001 128.4205Q530.2230000000001 127.855 530.2230000000001 126.854V126.737Q530.2230000000001 125.736 529.6770000000001 125.1705Q529.1310000000001 124.605 528.234 124.605Q527.363 124.605 526.8105 125.1705Q526.258 125.736 526.258 126.737V126.854Q526.258 127.855 526.8105 128.4205Q527.363 128.986 528.234 128.986ZM533.2260000000001 130.0V123.591H534.5390000000001V124.345H534.7470000000001Q534.903 123.94200000000001 535.2475000000001 123.7535Q535.5920000000001 123.565 536.099 123.565H536.8660000000001V124.774H536.047Q535.397 124.774 534.981 125.1315Q534.565 125.489 534.565 126.23V130.0ZM538.2570000000001 130.0V123.591H539.596V130.0ZM538.933 122.72Q538.543 122.72 538.2764999999999 122.4665Q538.01 122.213 538.01 121.81Q538.01 121.407 538.2764999999999 121.15350000000001Q538.543 120.9 538.933 120.9Q539.336 120.9 539.596 121.15350000000001Q539.856 121.407 539.856 121.81Q539.856 122.213 539.596 122.4665Q539.336 122.72 538.933 122.72ZM544.523 130.182Q543.548 130.182 542.8199999999999 129.77249999999998Q542.092 129.363 541.6825 128.6155Q541.273 127.868 541.273 126.88V126.724Q541.273 125.723 541.6759999999999 124.9755Q542.079 124.228 542.8004999999999 123.8185Q543.5219999999999 123.409 544.471 123.409Q545.394 123.409 546.0895 123.8185Q546.785 124.228 547.175 124.95599999999999Q547.5649999999999 125.684 547.5649999999999 126.659V127.166H542.638Q542.664 128.011 543.2035 128.5115Q543.7429999999999 129.012 544.549 129.012Q545.303 129.012 545.6865 128.674Q546.0699999999999 128.336 546.278 127.894L547.3829999999999 128.466Q547.201 128.83 546.8565 129.233Q546.512 129.636 545.953 129.909Q545.394 130.182 544.523 130.182ZM542.651 126.139H546.1999999999999Q546.148 125.411 545.6800000000001 125.0015Q545.212 124.592 544.458 124.592Q543.704 124.592 543.2294999999999 125.0015Q542.755 125.411 542.651 126.139ZM551.803 130.182Q550.581 130.182 549.775 129.636Q548.9689999999999 129.09 548.7869999999999 127.985L550.035 127.686Q550.139 128.219 550.386 128.531Q550.6329999999999 128.843 551.0034999999999 128.973Q551.3739999999999 129.103 551.803 129.103Q552.4399999999999 129.103 552.7845 128.856Q553.129 128.609 553.129 128.219Q553.129 127.829 552.804 127.64699999999999Q552.4789999999999 127.465 551.842 127.348L551.4 127.27Q550.75 127.153 550.217 126.932Q549.684 126.711 549.372 126.321Q549.06 125.931 549.06 125.32Q549.06 124.41 549.7359999999999 123.90950000000001Q550.4119999999999 123.409 551.53 123.409Q552.6089999999999 123.409 553.3045 123.8965Q554.0 124.384 554.208 125.216L552.9599999999999 125.56700000000001Q552.843 124.982 552.4659999999999 124.7415Q552.0889999999999 124.501 551.53 124.501Q550.9839999999999 124.501 550.672 124.7025Q550.36 124.904 550.36 125.268Q550.36 125.658 550.6655000000001 125.84Q550.971 126.022 551.491 126.113L551.9459999999999 126.191Q552.635 126.308 553.207 126.516Q553.779 126.724 554.1105 127.114Q554.442 127.504 554.442 128.154Q554.442 129.116 553.727 129.649Q553.012 130.182 551.803 130.182Z"><title>Repositories</title></path><path fill="#fb7185" d="M484.772 172.0V151.396H484.16L480.964 158.944H476.408L481.27 148.2H489.124V172.0Z"><title>1</title></path><rect x="476.0" y="186" width="161.0" height="5" rx="2.5" fill="#ffffff" fill-opacity=".08"/><rect class="k-grow" x="476.0" y="186" width="32.5" height="5" rx="2.5" fill="#fb7185" style="animation-delay:0.51s"/></g><g class="k-rise" style="animation-delay:0.34s"><rect x="671.0" y="100" width="197.0" height="108" rx="14" fill="#ffffff" fill-opacity=".025" stroke="#ffffff" stroke-opacity=".08"/><path fill="#b3a5a7" d="M689.949 130.0V120.9H695.565V122.174H691.353V124.8H695.227V126.074H691.353V130.0ZM699.972 130.182Q699.01 130.182 698.2625 129.7855Q697.515 129.389 697.086 128.648Q696.657 127.907 696.657 126.893V126.698Q696.657 125.684 697.086 124.9495Q697.515 124.215 698.2625 123.81200000000001Q699.01 123.409 699.972 123.409Q700.934 123.409 701.688 123.81200000000001Q702.442 124.215 702.871 124.9495Q703.3 125.684 703.3 126.698V126.893Q703.3 127.907 702.871 128.648Q702.442 129.389 701.688 129.7855Q700.934 130.182 699.972 130.182ZM699.972 128.986Q700.856 128.986 701.4085 128.4205Q701.961 127.855 701.961 126.854V126.737Q701.961 125.736 701.415 125.1705Q700.869 124.605 699.972 124.605Q699.101 124.605 698.5485 125.1705Q697.996 125.736 697.996 126.737V126.854Q697.996 127.855 698.5485 128.4205Q699.101 128.986 699.972 128.986ZM704.964 130.0V120.9H706.303V130.0ZM708.292 130.0V120.9H709.631V130.0ZM714.6229999999999 130.182Q713.661 130.182 712.9134999999999 129.7855Q712.1659999999999 129.389 711.737 128.648Q711.308 127.907 711.308 126.893V126.698Q711.308 125.684 711.737 124.9495Q712.1659999999999 124.215 712.9134999999999 123.81200000000001Q713.661 123.409 714.6229999999999 123.409Q715.5849999999999 123.409 716.3389999999999 123.81200000000001Q717.093 124.215 717.5219999999999 124.9495Q717.9509999999999 125.684 717.9509999999999 126.698V126.893Q717.9509999999999 127.907 717.5219999999999 128.648Q717.093 129.389 716.3389999999999 129.7855Q715.5849999999999 130.182 714.6229999999999 130.182ZM714.6229999999999 128.986Q715.507 128.986 716.0595 128.4205Q716.612 127.855 716.612 126.854V126.737Q716.612 125.736 716.066 125.1705Q715.52 124.605 714.6229999999999 124.605Q713.752 124.605 713.1995 125.1705Q712.6469999999999 125.736 712.6469999999999 126.737V126.854Q712.6469999999999 127.855 713.1995 128.4205Q713.752 128.986 714.6229999999999 128.986ZM720.317 130.0 719.2249999999999 123.591H720.564L721.37 129.103H721.578L722.6959999999999 123.591H724.867L725.972 129.103H726.18L726.986 123.591H728.3249999999999L727.233 130.0H724.9839999999999L723.8789999999999 124.501H723.6709999999999L722.5659999999999 130.0ZM732.849 130.182Q731.874 130.182 731.146 129.77249999999998Q730.418 129.363 730.0085 128.6155Q729.599 127.868 729.599 126.88V126.724Q729.599 125.723 730.002 124.9755Q730.405 124.228 731.1265 123.8185Q731.848 123.409 732.797 123.409Q733.72 123.409 734.4155000000001 123.8185Q735.111 124.228 735.501 124.95599999999999Q735.891 125.684 735.891 126.659V127.166H730.964Q730.99 128.011 731.5295 128.5115Q732.069 129.012 732.875 129.012Q733.629 129.012 734.0125 128.674Q734.396 128.336 734.604 127.894L735.709 128.466Q735.527 128.83 735.1825 129.233Q734.838 129.636 734.279 129.909Q733.72 130.182 732.849 130.182ZM730.977 126.139H734.526Q734.474 125.411 734.0060000000001 125.0015Q733.538 124.592 732.784 124.592Q732.03 124.592 731.5554999999999 125.0015Q731.081 125.411 730.977 126.139ZM737.503 130.0V123.591H738.816V124.345H739.024Q739.18 123.94200000000001 739.5245 123.7535Q739.869 123.565 740.376 123.565H741.143V124.774H740.324Q739.674 124.774 739.258 125.1315Q738.842 125.489 738.842 126.23V130.0ZM745.1600000000001 130.182Q743.9380000000001 130.182 743.1320000000001 129.636Q742.326 129.09 742.144 127.985L743.392 127.686Q743.4960000000001 128.219 743.743 128.531Q743.99 128.843 744.3605 128.973Q744.731 129.103 745.1600000000001 129.103Q745.797 129.103 746.1415000000001 128.856Q746.4860000000001 128.609 746.4860000000001 128.219Q746.4860000000001 127.829 746.1610000000001 127.64699999999999Q745.836 127.465 745.1990000000001 127.348L744.7570000000001 127.27Q744.1070000000001 127.153 743.5740000000001 126.932Q743.041 126.711 742.729 126.321Q742.417 125.931 742.417 125.32Q742.417 124.41 743.0930000000001 123.90950000000001Q743.769 123.409 744.8870000000001 123.409Q745.966 123.409 746.6615 123.8965Q747.3570000000001 124.384 747.565 125.216L746.317 125.56700000000001Q746.2 124.982 745.8230000000001 124.7415Q745.446 124.501 744.8870000000001 124.501Q744.341 124.501 744.029 124.7025Q743.7170000000001 124.904 743.7170000000001 125.268Q743.7170000000001 125.658 744.0225 125.84Q744.3280000000001 126.022 744.8480000000001 126.113L745.303 126.191Q745.9920000000001 126.308 746.5640000000001 126.516Q747.1360000000001 126.724 747.4675000000001 127.114Q747.7990000000001 127.504 747.7990000000001 128.154Q747.7990000000001 129.116 747.0840000000001 129.649Q746.369 130.182 745.1600000000001 130.182Z"><title>Followers</title></path><path fill="#dc2626" d="M690.428 172.0V169.144Q690.428 166.662 691.2439999999999 165.013Q692.06 163.364 693.607 162.293Q695.154 161.222 697.398 160.542L699.676 159.828Q700.934 159.42 701.784 158.825Q702.634 158.23 703.0930000000001 157.38Q703.552 156.53 703.552 155.442V155.30599999999998Q703.552 153.606 702.396 152.603Q701.24 151.6 699.234 151.6Q697.262 151.6 696.055 152.671Q694.848 153.742 694.848 155.748V156.36H690.496V155.816Q690.496 153.232 691.652 151.43Q692.808 149.628 694.797 148.676Q696.786 147.724 699.234 147.724Q701.682 147.724 703.654 148.659Q705.626 149.594 706.765 151.277Q707.904 152.96 707.904 155.238V155.578Q707.904 157.856 706.969 159.437Q706.034 161.018 704.4359999999999 162.02100000000002Q702.838 163.024 700.798 163.67L698.622 164.35Q697.16 164.792 696.344 165.31900000000002Q695.528 165.846 695.2049999999999 166.475Q694.882 167.10399999999998 694.882 167.988V168.124H707.7V172.0Z"><title>2</title></path><rect x="689.0" y="186" width="161.0" height="5" rx="2.5" fill="#ffffff" fill-opacity=".08"/><rect class="k-grow" x="689.0" y="186" width="45.0" height="5" rx="2.5" fill="#dc2626" style="animation-delay:0.59s"/></g>
</svg>
