<svg xmlns="http://www.w3.org/2000/svg" width="900" height="200" viewBox="0 0 900 200" role="img" aria-label="Tech stack: C, Oracle SQL, MIPS Assembly, R, Git, GitHub">
<defs>
  <linearGradient id="bg" x1="0" y1="0" x2="0" y2="1">
    <stop offset="0" stop-color="#1a0d10"/><stop offset="1" stop-color="#0e0809"/>
  </linearGradient>
  <linearGradient id="edge" x1="0" y1="0" x2="1" y2="1">
    <stop offset="0" stop-color="#ef4444" stop-opacity=".75"/>
    <stop offset=".45" stop-color="#991b1b" stop-opacity=".35"/>
    <stop offset="1" stop-color="#fb7185" stop-opacity=".6"/>
  </linearGradient>
  <radialGradient id="aura1"><stop offset="0" stop-color="#ef4444" stop-opacity=".28"/><stop offset="1" stop-color="#ef4444" stop-opacity="0"/></radialGradient>
  <radialGradient id="aura2"><stop offset="0" stop-color="#fb7185" stop-opacity=".16"/><stop offset="1" stop-color="#fb7185" stop-opacity="0"/></radialGradient>
  <filter id="soft" x="-20%" y="-20%" width="140%" height="140%"><feGaussianBlur stdDeviation="6"/></filter>
  <clipPath id="clip"><rect x="1" y="1" width="898" height="198" rx="20"/></clipPath>
  <linearGradient id="tile" x1="0" y1="0" x2="1" y2="1"><stop offset="0" stop-color="#f87171"/><stop offset="1" stop-color="#991b1b"/></linearGradient>
  <linearGradient id="sweep" x1="0" y1="0" x2="1" y2="0">
    <stop offset="0" stop-color="#fff" stop-opacity="0"/><stop offset=".5" stop-color="#fff" stop-opacity=".07"/><stop offset="1" stop-color="#fff" stop-opacity="0"/>
  </linearGradient>
</defs>
<style>
  .k-in   { opacity: 0; animation: k-fade .7s cubic-bezier(.2,.7,.2,1) forwards; }
  .k-rise { opacity: 0; animation: k-rise .8s cubic-bezier(.2,.7,.2,1) forwards; }
  .k-grow { transform-box: fill-box; transform-origin: left center; transform: scaleX(0);
            animation: k-grow 1.2s cubic-bezier(.2,.7,.2,1) forwards; }
  .k-drift-a { animation: k-drift-a 14s ease-in-out infinite alternate; }
  .k-drift-b { animation: k-drift-b 18s ease-in-out infinite alternate; }
  .k-pulse { animation: k-pulse 2.4s ease-in-out infinite; }
  .k-blink { animation: k-blink 1.1s steps(1) infinite; }
  .k-spin  { transform-box: fill-box; transform-origin: center; animation: k-spin 14s linear infinite; }
  @keyframes k-fade  { to { opacity: 1; } }
  @keyframes k-rise  { from { opacity: 0; transform: translateY(6px); } to { opacity: 1; transform: translateY(0); } }
  @keyframes k-grow  { to { transform: scaleX(1); } }
  @keyframes k-drift-a { to { transform: translate(-40px, 18px); } }
  @keyframes k-drift-b { to { transform: translate(46px, -14px); } }
  @keyframes k-pulse { 0%,100% { opacity: 1; } 50% { opacity: .35; } }
  @keyframes k-blink { 50% { opacity: 0; } }
  @keyframes k-spin  { to { transform: rotate(360deg); } }
  @media (prefers-reduced-motion: reduce) {
    .k-in, .k-rise { opacity: 1; animation: none; }
    .k-grow { transform: none; animation: none; }
    .k-drift-a, .k-drift-b, .k-pulse, .k-spin, .k-blink { animation: none; }
  }

  .sw { animation: sw 6s ease-in-out 1.5s infinite; }
  @keyframes sw { 0% { transform: translateX(0); } 45%,100% { transform: translateX(1500px); } }
  @media (prefers-reduced-motion: reduce) { .sw { animation: none; } }</style>
<rect x="1" y="1" width="898" height="198" rx="20" fill="url(#bg)"/><g clip-path="url(#clip)"><ellipse class="k-drift-a" cx="738" cy="10" rx="288" ry="180" fill="url(#aura1)"/><ellipse class="k-drift-b" cx="108" cy="200" rx="252" ry="160" fill="url(#aura2)"/></g><rect x="1" y="1" width="898" height="198" rx="20" fill="none" stroke="#ef4444" stroke-opacity=".35" stroke-width="3" filter="url(#soft)"/><rect x="1" y="1" width="898" height="198" rx="20" fill="none" stroke="url(#edge)" stroke-width="1.2"/><path fill="#ef4444" d="M35.198 48.0V39.797H32.663V38.497H39.137V39.797H36.602V48.0ZM42.622 48.0V38.51H48.199V39.758H44.0V42.449H47.744V43.684H44.0V46.752H48.199V48.0ZM54.751999999999995 48.13Q53.867999999999995 48.13 53.2115 47.798500000000004Q52.555 47.467 52.1975 46.8365Q51.839999999999996 46.206 51.839999999999996 45.361V41.149Q51.839999999999996 40.291 52.1975 39.667Q52.555 39.043 53.2115 38.7115Q53.867999999999995 38.38 54.751999999999995 38.38Q55.635999999999996 38.38 56.286 38.718Q56.936 39.056 57.293499999999995 39.6735Q57.650999999999996 40.291 57.650999999999996 41.149H56.247Q56.247 40.408 55.857 40.018Q55.467 39.628 54.751999999999995 39.628Q54.037 39.628 53.6405 40.018Q53.244 40.408 53.244 41.136V45.361Q53.244 46.089 53.6405 46.4855Q54.037 46.882 54.751999999999995 46.882Q55.467 46.882 55.857 46.4855Q56.247 46.089 56.247 45.361H57.650999999999996Q57.650999999999996 46.206 57.293499999999995 46.83Q56.936 47.454 56.286 47.792Q55.635999999999996 48.13 54.751999999999995 48.13ZM61.305 48.0V38.51H62.709V42.436H65.491V38.51H66.895V48.0H65.491V43.736H62.709V48.0ZM73.5 48.13Q72.97999999999999 48.13 72.66799999999999 47.8245Q72.356 47.519 72.356 46.999Q72.356 46.466 72.66799999999999 46.1475Q72.97999999999999 45.829 73.5 45.829Q74.03299999999999 45.829 74.33849999999998 46.1475Q74.64399999999999 46.466 74.64399999999999 46.999Q74.64399999999999 47.519 74.33849999999998 47.8245Q74.03299999999999 48.13 73.5 48.13ZM82.939 48.13Q81.977 48.13 81.28800000000001 47.8115Q80.599 47.493 80.22200000000001 46.9015Q79.845 46.31 79.845 45.491H81.236Q81.236 46.141 81.691 46.5115Q82.146 46.882 82.952 46.882Q83.706 46.882 84.13499999999999 46.518Q84.564 46.154 84.564 45.517Q84.564 44.984 84.2715 44.594Q83.979 44.204 83.43299999999999 44.061L82.237 43.71Q81.197 43.411 80.6315 42.6895Q80.066 41.968 80.066 40.967Q80.066 40.187 80.417 39.602000000000004Q80.768 39.017 81.418 38.69200000000001Q82.068 38.367000000000004 82.952 38.367000000000004Q84.252 38.367000000000004 85.0385 39.069Q85.825 39.771 85.838 40.954H84.434Q84.434 40.33 84.0375 39.9725Q83.641 39.615 82.926 39.615Q82.237 39.615 81.847 39.9465Q81.457 40.278 81.457 40.876Q81.457 41.409 81.7495 41.799Q82.042 42.189 82.588 42.345L83.797 42.709Q84.837 42.995 85.396 43.723Q85.955 44.451 85.955 45.465Q85.955 46.258 85.578 46.8625Q85.201 47.467 84.525 47.798500000000004Q83.849 48.13 82.939 48.13ZM91.598 48.0V39.797H89.063V38.497H95.537V39.797H93.00200000000001V48.0ZM98.359 48.0 100.777 38.51H102.62299999999999L105.041 48.0H103.624L103.05199999999999 45.595H100.36099999999999L99.789 48.0ZM100.621 44.438H102.779L102.12899999999999 41.695Q101.96 40.967 101.84949999999999 40.427499999999995Q101.73899999999999 39.888 101.7 39.693Q101.661 39.888 101.557 40.427499999999995Q101.453 40.967 101.271 41.682ZM111.152 48.13Q110.268 48.13 109.6115 47.798500000000004Q108.955 47.467 108.5975 46.8365Q108.24000000000001 46.206 108.24000000000001 45.361V41.149Q108.24000000000001 40.291 108.5975 39.667Q108.955 39.043 109.6115 38.7115Q110.268 38.38 111.152 38.38Q112.036 38.38 112.686 38.718Q113.336 39.056 113.6935 39.6735Q114.051 40.291 114.051 41.149H112.647Q112.647 40.408 112.257 40.018Q111.867 39.628 111.152 39.628Q110.437 39.628 110.04050000000001 40.018Q109.644 40.408 109.644 41.136V45.361Q109.644 46.089 110.04050000000001 46.4855Q110.437 46.882 111.152 46.882Q111.867 46.882 112.257 46.4855Q112.647 46.089 112.647 45.361H114.051Q114.051 46.206 113.6935 46.83Q113.336 47.454 112.686 47.792Q112.036 48.13 111.152 48.13ZM117.69200000000001 48.0V38.51H119.096V42.462H120.35700000000001L122.29400000000001 38.51H123.828L121.59200000000001 43.06L123.932 48.0H122.35900000000001L120.331 43.723H119.096V48.0Z"><title>TECH.STACK</title></path><path fill="#6f6264" d="M143.15400000000002 44.685V43.723Q143.15400000000002 42.93 143.64150000000004 42.462Q144.12900000000005 41.994 144.93500000000003 41.994Q145.44200000000004 41.994 145.78650000000005 42.163Q146.13100000000003 42.332 146.37150000000003 42.592Q146.61200000000002 42.852000000000004 146.80050000000003 43.112Q146.98900000000003 43.372 147.19050000000004 43.5475Q147.39200000000002 43.723 147.65200000000004 43.723Q147.92500000000004 43.723 148.06800000000004 43.554Q148.21100000000004 43.385 148.21100000000004 43.073V42.15H149.44600000000003V43.112Q149.44600000000003 43.892 148.96500000000003 44.3665Q148.48400000000004 44.841 147.66500000000002 44.841Q147.15800000000004 44.841 146.81350000000003 44.672Q146.46900000000002 44.503 146.22850000000003 44.243Q145.98800000000003 43.983000000000004 145.79950000000002 43.723Q145.61100000000005 43.463 145.40950000000004 43.2875Q145.20800000000003 43.112 144.94800000000004 43.112Q144.67500000000004 43.112 144.53200000000004 43.2745Q144.38900000000004 43.437 144.38900000000004 43.762V44.685ZM151.08400000000003 49.43 155.66000000000005 37.21H157.11600000000004L152.54000000000005 49.43ZM161.65300000000002 48.117Q160.88600000000002 48.117 160.30750000000003 47.87Q159.72900000000004 47.623 159.39750000000004 47.1875Q159.06600000000003 46.752 159.01400000000004 46.154H160.41800000000003Q160.47000000000003 46.505 160.79500000000002 46.7195Q161.12000000000003 46.934 161.65300000000002 46.934H162.21200000000002Q162.84900000000002 46.934 163.17400000000004 46.674Q163.49900000000002 46.414 163.49900000000002 45.985Q163.49900000000002 45.569 163.2065 45.328500000000005Q162.91400000000002 45.088 162.34200000000004 45.01L161.41900000000004 44.867Q160.27500000000003 44.685 159.73550000000003 44.210499999999996Q159.19600000000003 43.736 159.19600000000003 42.8Q159.19600000000003 41.812 159.83950000000004 41.2725Q160.48300000000003 40.733000000000004 161.74400000000003 40.733000000000004H162.23800000000003Q163.35600000000002 40.733000000000004 164.02550000000002 41.2465Q164.69500000000002 41.76 164.78600000000003 42.618H163.38200000000003Q163.33000000000004 42.306 163.03750000000002 42.111Q162.74500000000003 41.916 162.23800000000003 41.916H161.74400000000003Q161.13300000000004 41.916 160.85350000000005 42.1435Q160.57400000000004 42.371 160.57400000000004 42.813Q160.57400000000004 43.203 160.82100000000003 43.398Q161.06800000000004 43.593 161.58800000000002 43.671L162.53700000000003 43.827Q163.74600000000004 43.996 164.31150000000002 44.4965Q164.87700000000004 44.997 164.87700000000004 45.946Q164.87700000000004 46.973 164.20750000000004 47.545Q163.53800000000004 48.117 162.21200000000002 48.117ZM166.93100000000004 48.0V38.51H168.33500000000004V43.723H169.59600000000003L171.49400000000003 40.85H173.08000000000004L170.80500000000004 44.282L173.11900000000003 48.0H171.50700000000003L169.59600000000003 44.932H168.33500000000004V48.0ZM174.65300000000002 48.0V46.726H177.16200000000003V42.124H174.978V40.85H178.52700000000002V46.726H180.82800000000003V48.0ZM177.70800000000003 39.615Q177.25300000000001 39.615 176.98000000000002 39.3745Q176.70700000000002 39.134 176.70700000000002 38.731Q176.70700000000002 38.315 176.98000000000002 38.0745Q177.25300000000001 37.834 177.70800000000003 37.834Q178.163 37.834 178.43600000000004 38.0745Q178.70900000000003 38.315 178.70900000000003 38.731Q178.70900000000003 39.134 178.43600000000004 39.3745Q178.163 39.615 177.70800000000003 39.615ZM186.32700000000003 48.0Q185.66400000000004 48.0 185.17000000000004 47.7335Q184.67600000000004 47.467 184.39650000000006 46.973Q184.11700000000005 46.479 184.11700000000005 45.829V39.784H181.77700000000004V38.51H185.52100000000004V45.829Q185.52100000000004 46.245 185.75500000000005 46.4855Q185.98900000000003 46.726 186.39200000000002 46.726H188.60200000000003V48.0ZM194.12700000000004 48.0Q193.46400000000006 48.0 192.97000000000006 47.7335Q192.47600000000006 47.467 192.19650000000007 46.973Q191.91700000000006 46.479 191.91700000000006 45.829V39.784H189.57700000000006V38.51H193.32100000000005V45.829Q193.32100000000005 46.245 193.55500000000006 46.4855Q193.78900000000004 46.726 194.19200000000004 46.726H196.40200000000004V48.0ZM200.65300000000002 48.117Q199.88600000000002 48.117 199.30750000000003 47.87Q198.72900000000004 47.623 198.39750000000004 47.1875Q198.06600000000003 46.752 198.01400000000004 46.154H199.41800000000003Q199.47000000000003 46.505 199.79500000000002 46.7195Q200.12000000000003 46.934 200.65300000000002 46.934H201.21200000000002Q201.84900000000002 46.934 202.17400000000004 46.674Q202.49900000000002 46.414 202.49900000000002 45.985Q202.49900000000002 45.569 202.2065 45.328500000000005Q201.91400000000002 45.088 201.34200000000004 45.01L200.41900000000004 44.867Q199.27500000000003 44.685 198.73550000000003 44.210499999999996Q198.19600000000003 43.736 198.19600000000003 42.8Q198.19600000000003 41.812 198.83950000000004 41.2725Q199.48300000000003 40.733000000000004 200.74400000000003 40.733000000000004H201.23800000000003Q202.35600000000002 40.733000000000004 203.02550000000002 41.2465Q203.69500000000002 41.76 203.78600000000003 42.618H202.38200000000003Q202.33000000000004 42.306 202.03750000000002 42.111Q201.74500000000003 41.916 201.23800000000003 41.916H200.74400000000003Q200.13300000000004 41.916 199.85350000000005 42.1435Q199.57400000000004 42.371 199.57400000000004 42.813Q199.57400000000004 43.203 199.82100000000003 43.398Q200.06800000000004 43.593 200.58800000000002 43.671L201.53700000000003 43.827Q202.74600000000004 43.996 203.31150000000002 44.4965Q203.87700000000004 44.997 203.87700000000004 45.946Q203.87700000000004 46.973 203.20750000000004 47.545Q202.53800000000004 48.117 201.21200000000002 48.117ZM214.42000000000002 44.347V43.073H218.58V44.347ZM222.22000000000003 44.347V43.073H226.38000000000002V44.347ZM233.127 48.0Q232.46400000000003 48.0 231.97000000000003 47.7335Q231.47600000000003 47.467 231.19650000000001 46.973Q230.91700000000003 46.479 230.91700000000003 45.829V39.784H228.57700000000003V38.51H232.32100000000003V45.829Q232.32100000000003 46.245 232.555 46.4855Q232.78900000000002 46.726 233.192 46.726H235.40200000000002V48.0ZM237.053 48.0V46.726H239.562V42.124H237.378V40.85H240.927V46.726H243.228V48.0ZM240.108 39.615Q239.653 39.615 239.38 39.3745Q239.107 39.134 239.107 38.731Q239.107 38.315 239.38 38.0745Q239.653 37.834 240.108 37.834Q240.563 37.834 240.836 38.0745Q241.109 38.315 241.109 38.731Q241.109 39.134 240.836 39.3745Q240.563 39.615 240.108 39.615ZM247.453 48.117Q246.686 48.117 246.10750000000002 47.87Q245.52900000000002 47.623 245.19750000000002 47.1875Q244.866 46.752 244.81400000000002 46.154H246.21800000000002Q246.27 46.505 246.59500000000003 46.7195Q246.92000000000002 46.934 247.453 46.934H248.012Q248.649 46.934 248.974 46.674Q249.299 46.414 249.299 45.985Q249.299 45.569 249.00650000000002 45.328500000000005Q248.714 45.088 248.14200000000002 45.01L247.21900000000002 44.867Q246.07500000000002 44.685 245.5355 44.210499999999996Q244.996 43.736 244.996 42.8Q244.996 41.812 245.6395 41.2725Q246.28300000000002 40.733000000000004 247.544 40.733000000000004H248.038Q249.156 40.733000000000004 249.8255 41.2465Q250.495 41.76 250.586 42.618H249.18200000000002Q249.13000000000002 42.306 248.83750000000003 42.111Q248.54500000000002 41.916 248.038 41.916H247.544Q246.93300000000002 41.916 246.6535 42.1435Q246.37400000000002 42.371 246.37400000000002 42.813Q246.37400000000002 43.203 246.62100000000004 43.398Q246.86800000000002 43.593 247.388 43.671L248.33700000000002 43.827Q249.54600000000002 43.996 250.11150000000004 44.4965Q250.67700000000002 44.997 250.67700000000002 45.946Q250.67700000000002 46.973 250.00750000000002 47.545Q249.33800000000002 48.117 248.012 48.117ZM256.28000000000003 48.0Q255.30500000000004 48.0 254.75900000000001 47.467Q254.21300000000002 46.934 254.21300000000002 45.985V42.124H252.23700000000002V40.85H254.21300000000002V38.835H255.61700000000002V40.85H258.41200000000003V42.124H255.61700000000002V45.985Q255.61700000000002 46.726 256.33200000000005 46.726H258.28200000000004V48.0Z"><title>~/skills --list</title></path><line x1="32" y1="64" x2="868" y2="64" stroke="#3a1c21"/><g class="k-rise" style="animation-delay:0.10s"><rect x="32.0" y="84" width="129.3" height="92" rx="14" fill="#ffffff" fill-opacity=".025" stroke="#ffffff" stroke-opacity=".08"/><rect x="46.0" y="98" width="34" height="34" rx="9" fill="url(#tile)"/><path fill="#fff" d="M63.15 120.61Q61.2 120.61 60.06 119.52250000000001Q58.92 118.435 58.92 116.41000000000001V113.89Q58.92 111.86500000000001 60.06 110.7775Q61.2 109.69000000000001 63.15 109.69000000000001Q65.08500000000001 109.69000000000001 66.14250000000001 110.7475Q67.2 111.805 67.2 113.65V113.74000000000001H65.25V113.59Q65.25 112.66000000000001 64.7325 112.06Q64.215 111.46000000000001 63.15 111.46000000000001Q62.1 111.46000000000001 61.5 112.105Q60.9 112.75 60.9 113.86V116.44000000000001Q60.9 117.53500000000001 61.5 118.1875Q62.1 118.84 63.15 118.84Q64.215 118.84 64.7325 118.2325Q65.25 117.625 65.25 116.71000000000001V116.44000000000001H67.2V116.65Q67.2 118.495 66.14250000000001 119.55250000000001Q65.08500000000001 120.61 63.15 120.61Z"><title>C</title></path><path fill="#fafafa" d="M50.647999999999996 150.196Q48.828 150.196 47.764 149.18099999999998Q46.7 148.166 46.7 146.276V143.924Q46.7 142.034 47.764 141.019Q48.828 140.004 50.647999999999996 140.004Q52.454 140.004 53.441 140.99099999999999Q54.428 141.978 54.428 143.7V143.784H52.608000000000004V143.644Q52.608000000000004 142.776 52.125 142.216Q51.642 141.656 50.647999999999996 141.656Q49.668 141.656 49.108000000000004 142.258Q48.548 142.86 48.548 143.896V146.304Q48.548 147.326 49.108000000000004 147.935Q49.668 148.544 50.647999999999996 148.544Q51.642 148.544 52.125 147.977Q52.608000000000004 147.41 52.608000000000004 146.556V146.304H54.428V146.5Q54.428 148.222 53.441 149.209Q52.454 150.196 50.647999999999996 150.196Z"><title>C</title></path><path fill="#6f6264" d="M47.199 166.0V157.97H48.387V164.911H51.896V166.0ZM55.295 166.11Q54.349000000000004 166.11 53.804500000000004 165.6205Q53.26 165.131 53.26 164.284Q53.26 163.426 53.8375 162.9365Q54.415 162.447 55.427 162.447H57.11V161.886Q57.11 161.391 56.802 161.11599999999999Q56.494 160.841 55.933 160.841Q55.438 160.841 55.108000000000004 161.0555Q54.778 161.27 54.723 161.622H53.557Q53.656 160.808 54.310500000000005 160.324Q54.965 159.84 55.966 159.84Q57.044000000000004 159.84 57.67100000000001 160.3845Q58.298 160.929 58.298 161.864V166.0H57.143V164.889H57.132000000000005Q57.055 165.395 56.637 165.714Q56.131 166.11 55.295 166.11ZM55.647 165.197Q56.285000000000004 165.197 56.697500000000005 164.8725Q57.11 164.548 57.11 164.042V163.25H55.449Q54.987 163.25 54.7175 163.503Q54.448 163.756 54.448 164.196Q54.448 164.658 54.766999999999996 164.9275Q55.086 165.197 55.647 165.197ZM60.124 166.0V159.95H61.301V161.105H61.323Q61.389 160.577 61.730000000000004 160.247Q62.159000000000006 159.84 62.918000000000006 159.84Q63.82 159.84 64.359 160.41750000000002Q64.898 160.995 64.898 161.974V166.0H63.71V162.106Q63.71 161.512 63.391000000000005 161.19299999999998Q63.072 160.874 62.522000000000006 160.874Q61.961000000000006 160.874 61.636500000000005 161.2095Q61.312000000000005 161.545 61.312000000000005 162.183V166.0ZM67.51599999999999 167.98V166.957H69.375Q69.837 166.957 70.0625 166.737Q70.288 166.517 70.288 166.088V165.483L70.31 164.361H70.288Q70.233 164.9 69.86999999999999 165.23Q69.42999999999999 165.626 68.693 165.626Q67.758 165.626 67.219 165.01Q66.67999999999999 164.394 66.67999999999999 163.349V162.117Q66.67999999999999 161.072 67.219 160.45600000000002Q67.758 159.84 68.693 159.84Q69.42999999999999 159.84 69.86999999999999 160.236Q70.222 160.577 70.288 161.105H70.29899999999999L70.288 159.95H71.465V166.11Q71.465 166.979 70.91499999999999 167.4795Q70.365 167.98 69.386 167.98ZM69.078 164.603Q69.639 164.603 69.9635 164.25650000000002Q70.288 163.91 70.288 163.294V162.183Q70.288 161.567 69.9635 161.22050000000002Q69.639 160.874 69.078 160.874Q68.49499999999999 160.874 68.1815 161.2095Q67.868 161.545 67.868 162.183V163.294Q67.868 163.921 68.1815 164.262Q68.49499999999999 164.603 69.078 164.603ZM75.68900000000001 166.11Q74.60000000000001 166.11 73.95100000000001 165.47750000000002Q73.302 164.845 73.302 163.756V159.95H74.49000000000001V163.756Q74.49000000000001 164.383 74.809 164.7295Q75.128 165.076 75.68900000000001 165.076Q76.26100000000001 165.076 76.58550000000001 164.7295Q76.91000000000001 164.383 76.91000000000001 163.756V159.95H78.098V163.756Q78.098 164.845 77.4435 165.47750000000002Q76.789 166.11 75.68900000000001 166.11ZM81.695 166.11Q80.749 166.11 80.2045 165.6205Q79.66 165.131 79.66 164.284Q79.66 163.426 80.2375 162.9365Q80.815 162.447 81.827 162.447H83.51V161.886Q83.51 161.391 83.202 161.11599999999999Q82.894 160.841 82.333 160.841Q81.838 160.841 81.508 161.0555Q81.178 161.27 81.123 161.622H79.957Q80.056 160.808 80.7105 160.324Q81.365 159.84 82.366 159.84Q83.444 159.84 84.071 160.3845Q84.698 160.929 84.698 161.864V166.0H83.543V164.889H83.532Q83.455 165.395 83.037 165.714Q82.531 166.11 81.695 166.11ZM82.047 165.197Q82.685 165.197 83.0975 164.8725Q83.51 164.548 83.51 164.042V163.25H81.849Q81.387 163.25 81.1175 163.503Q80.848 163.756 80.848 164.196Q80.848 164.658 81.167 164.9275Q81.486 165.197 82.047 165.197ZM87.31599999999999 167.98V166.957H89.175Q89.637 166.957 89.8625 166.737Q90.088 166.517 90.088 166.088V165.483L90.11 164.361H90.088Q90.03299999999999 164.9 89.66999999999999 165.23Q89.22999999999999 165.626 88.493 165.626Q87.55799999999999 165.626 87.01899999999999 165.01Q86.47999999999999 164.394 86.47999999999999 163.349V162.117Q86.47999999999999 161.072 87.01899999999999 160.45600000000002Q87.55799999999999 159.84 88.493 159.84Q89.22999999999999 159.84 89.66999999999999 160.236Q90.02199999999999 160.577 90.088 161.105H90.09899999999999L90.088 159.95H91.265V166.11Q91.265 166.979 90.715 167.4795Q90.16499999999999 167.98 89.18599999999999 167.98ZM88.878 164.603Q89.439 164.603 89.7635 164.25650000000002Q90.088 163.91 90.088 163.294V162.183Q90.088 161.567 89.7635 161.22050000000002Q89.439 160.874 88.878 160.874Q88.29499999999999 160.874 87.98149999999998 161.2095Q87.66799999999999 161.545 87.66799999999999 162.183V163.294Q87.66799999999999 163.921 87.98149999999998 164.262Q88.29499999999999 164.603 88.878 164.603ZM95.5 166.11Q94.763 166.11 94.20750000000001 165.8185Q93.652 165.527 93.355 164.999Q93.058 164.471 93.058 163.767V162.183Q93.058 161.468 93.355 160.94549999999998Q93.652 160.423 94.20750000000001 160.13150000000002Q94.763 159.84 95.5 159.84Q96.248 159.84 96.798 160.13150000000002Q97.348 160.423 97.64500000000001 160.94549999999998Q97.94200000000001 161.468 97.94200000000001 162.183V163.261H94.202V163.767Q94.202 164.438 94.5375 164.79Q94.873 165.142 95.511 165.142Q96.028 165.142 96.34700000000001 164.9605Q96.666 164.779 96.74300000000001 164.427H97.92Q97.788 165.197 97.128 165.6535Q96.468 166.11 95.5 166.11ZM96.798 162.447V162.172Q96.798 161.512 96.468 161.149Q96.138 160.786 95.5 160.786Q94.873 160.786 94.5375 161.149Q94.202 161.512 94.202 162.183V162.458Z"><title>Language</title></path></g><g class="k-rise" style="animation-delay:0.18s"><rect x="173.3" y="84" width="129.3" height="92" rx="14" fill="#ffffff" fill-opacity=".025" stroke="#ffffff" stroke-opacity=".08"/><rect x="187.3" y="98" width="34" height="34" rx="9" fill="url(#tile)"/><path fill="#fff" d="M198.00183333333334 118.927Q197.15133333333335 118.927 196.50033333333334 118.6225Q195.84933333333336 118.318 195.48183333333336 117.751Q195.11433333333335 117.184 195.11433333333335 116.386V116.092H196.47933333333336V116.386Q196.47933333333336 117.0475 196.88883333333337 117.37825000000001Q197.29833333333335 117.709 198.00183333333334 117.709Q198.71583333333334 117.709 199.06758333333335 117.4255Q199.41933333333336 117.142 199.41933333333336 116.70100000000001Q199.41933333333336 116.3965 199.24608333333333 116.20750000000001Q199.07283333333334 116.0185 198.74208333333334 115.89775Q198.41133333333335 115.777 197.93883333333335 115.672L197.69733333333335 115.6195Q196.94133333333335 115.4515 196.40058333333334 115.19425Q195.85983333333334 114.937 195.57108333333335 114.517Q195.28233333333336 114.097 195.28233333333336 113.425Q195.28233333333336 112.753 195.60258333333337 112.27525Q195.92283333333336 111.7975 196.50558333333333 111.54025Q197.08833333333334 111.283 197.87583333333336 111.283Q198.66333333333336 111.283 199.27758333333335 111.55075Q199.89183333333335 111.8185 200.24358333333333 112.34875Q200.59533333333334 112.879 200.59533333333334 113.677V113.992H199.23033333333336V113.677Q199.23033333333336 113.257 199.06758333333335 112.99975Q198.90483333333336 112.7425 198.60033333333337 112.62175Q198.29583333333335 112.501 197.87583333333336 112.501Q197.24583333333334 112.501 196.94658333333334 112.73725Q196.64733333333334 112.9735 196.64733333333334 113.383Q196.64733333333334 113.656 196.78908333333334 113.845Q196.93083333333334 114.034 197.21433333333334 114.16Q197.49783333333335 114.286 197.93883333333335 114.3805L198.18033333333335 114.433Q198.96783333333335 114.601 199.55058333333335 114.8635Q200.13333333333335 115.126 200.45883333333336 115.5565Q200.78433333333334 115.987 200.78433333333334 116.659Q200.78433333333334 117.331 200.44308333333333 117.84025Q200.10183333333336 118.3495 199.47708333333335 118.63825Q198.85233333333335 118.927 198.00183333333334 118.927ZM205.15233333333336 120.67Q204.63783333333336 120.67 204.31758333333335 120.34975Q203.99733333333336 120.0295 203.99733333333336 119.494V118.8745Q203.07333333333335 118.7275 202.46433333333334 118.1605Q201.64533333333335 117.4045 201.64533333333335 115.987V114.223Q201.64533333333335 112.8055 202.46433333333334 112.04425Q203.28333333333336 111.283 204.66933333333336 111.283Q206.05533333333335 111.283 206.87433333333337 112.04425Q207.69333333333336 112.8055 207.69333333333336 114.223V115.987Q207.69333333333336 117.4045 206.87433333333334 118.1605Q206.26533333333336 118.7275 205.34133333333335 118.8745V119.284Q205.34133333333335 119.599 205.63533333333334 119.599H206.25483333333335V120.67ZM204.66933333333336 117.688Q205.44633333333334 117.688 205.87683333333337 117.2365Q206.30733333333336 116.785 206.30733333333336 116.029V114.181Q206.30733333333336 113.425 205.87683333333337 112.9735Q205.44633333333334 112.522 204.66933333333336 112.522Q203.90283333333335 112.522 203.46708333333333 112.9735Q203.03133333333335 113.425 203.03133333333335 114.181V116.029Q203.03133333333335 116.785 203.46708333333333 117.2365Q203.90283333333335 117.688 204.66933333333336 117.688ZM208.91133333333337 118.78V111.43H210.29733333333337V117.52H213.65733333333336V118.78Z"><title>SQL</title></path><path fill="#fafafa" d="M192.06533333333334 150.196Q190.21733333333333 150.196 189.12533333333334 149.18099999999998Q188.03333333333333 148.166 188.03333333333333 146.276V143.924Q188.03333333333333 142.034 189.12533333333334 141.019Q190.21733333333333 140.004 192.06533333333334 140.004Q193.91333333333336 140.004 195.00533333333334 141.019Q196.09733333333335 142.034 196.09733333333335 143.924V146.276Q196.09733333333335 148.166 195.00533333333334 149.18099999999998Q193.91333333333336 150.196 192.06533333333334 150.196ZM192.06533333333334 148.544Q193.10133333333334 148.544 193.67533333333336 147.942Q194.24933333333334 147.34 194.24933333333334 146.332V143.868Q194.24933333333334 142.86 193.67533333333336 142.258Q193.10133333333334 141.656 192.06533333333334 141.656Q191.04333333333335 141.656 190.46233333333333 142.258Q189.88133333333334 142.86 189.88133333333334 143.868V146.332Q189.88133333333334 147.34 190.46233333333333 147.942Q191.04333333333335 148.544 192.06533333333334 148.544ZM197.77733333333333 150.0V143.056H199.51333333333335V143.84H199.76533333333333Q199.91933333333333 143.42 200.27633333333335 143.224Q200.63333333333335 143.028 201.10933333333335 143.028H201.94933333333333V144.596H201.08133333333333Q200.40933333333334 144.596 199.97533333333334 144.953Q199.54133333333334 145.31 199.54133333333334 146.052V150.0ZM205.47733333333335 150.196Q204.73533333333336 150.196 204.14733333333334 149.937Q203.55933333333334 149.678 203.21633333333335 149.18099999999998Q202.87333333333336 148.684 202.87333333333336 147.97Q202.87333333333336 147.256 203.21633333333335 146.773Q203.55933333333334 146.29 204.16833333333335 146.04500000000002Q204.77733333333336 145.8 205.56133333333335 145.8H207.46533333333335V145.408Q207.46533333333335 144.918 207.15733333333336 144.603Q206.84933333333336 144.288 206.17733333333337 144.288Q205.51933333333335 144.288 205.19733333333335 144.589Q204.87533333333334 144.89 204.77733333333336 145.36599999999999L203.15333333333336 144.82Q203.32133333333334 144.288 203.69233333333335 143.847Q204.06333333333336 143.406 204.68633333333335 143.133Q205.30933333333334 142.86 206.20533333333336 142.86Q207.57733333333334 142.86 208.37533333333334 143.546Q209.17333333333335 144.232 209.17333333333335 145.534V148.124Q209.17333333333335 148.544 209.56533333333334 148.544H210.12533333333334V150.0H208.94933333333336Q208.43133333333336 150.0 208.09533333333337 149.748Q207.75933333333336 149.496 207.75933333333336 149.076V149.062H207.49333333333334Q207.43733333333336 149.23 207.24133333333336 149.503Q207.04533333333336 149.776 206.62533333333334 149.986Q206.20533333333336 150.196 205.47733333333335 150.196ZM205.78533333333334 148.768Q206.52733333333336 148.768 206.99633333333335 148.35500000000002Q207.46533333333335 147.942 207.46533333333335 147.256V147.116H205.68733333333336Q205.19733333333335 147.116 204.91733333333335 147.32600000000002Q204.63733333333334 147.536 204.63733333333334 147.914Q204.63733333333334 148.292 204.93133333333333 148.53Q205.22533333333334 148.768 205.78533333333334 148.768ZM214.67533333333333 150.196Q213.66733333333335 150.196 212.84833333333336 149.776Q212.02933333333334 149.356 211.55333333333334 148.558Q211.07733333333334 147.76 211.07733333333334 146.626V146.43Q211.07733333333334 145.296 211.55333333333334 144.498Q212.02933333333334 143.7 212.84833333333336 143.28Q213.66733333333335 142.86 214.67533333333333 142.86Q215.66933333333333 142.86 216.38333333333333 143.21Q217.09733333333332 143.56 217.53833333333333 144.16899999999998Q217.97933333333333 144.778 218.11933333333334 145.548L216.41133333333335 145.912Q216.35533333333333 145.492 216.15933333333334 145.156Q215.96333333333334 144.82 215.60633333333334 144.624Q215.24933333333334 144.428 214.71733333333333 144.428Q214.18533333333335 144.428 213.75833333333333 144.659Q213.33133333333333 144.89 213.08633333333333 145.345Q212.84133333333332 145.8 212.84133333333332 146.458V146.598Q212.84133333333332 147.256 213.08633333333333 147.711Q213.33133333333333 148.166 213.75833333333333 148.397Q214.18533333333335 148.628 214.71733333333333 148.628Q215.51533333333333 148.628 215.92833333333334 148.21499999999997Q216.34133333333332 147.802 216.45333333333335 147.13L218.16133333333335 147.536Q217.97933333333333 148.278 217.53833333333333 148.887Q217.09733333333332 149.496 216.38333333333333 149.846Q215.66933333333333 150.196 214.67533333333333 150.196ZM219.61733333333333 150.0V140.2H221.38133333333334V150.0ZM226.50533333333334 150.196Q225.46933333333334 150.196 224.67833333333334 149.755Q223.88733333333334 149.314 223.44633333333334 148.50900000000001Q223.00533333333334 147.704 223.00533333333334 146.612V146.444Q223.00533333333334 145.352 223.43933333333334 144.547Q223.87333333333333 143.742 224.65733333333333 143.301Q225.44133333333335 142.86 226.47733333333332 142.86Q227.49933333333334 142.86 228.25533333333334 143.315Q229.01133333333334 143.77 229.43133333333333 144.575Q229.85133333333334 145.38 229.85133333333334 146.444V147.046H224.79733333333334Q224.82533333333333 147.76 225.32933333333335 148.208Q225.83333333333334 148.656 226.56133333333332 148.656Q227.30333333333334 148.656 227.65333333333334 148.334Q228.00333333333333 148.012 228.18533333333335 147.62L229.62733333333333 148.376Q229.43133333333333 148.74 229.06033333333335 149.167Q228.68933333333334 149.594 228.07333333333332 149.89499999999998Q227.45733333333334 150.196 226.50533333333334 150.196ZM224.81133333333332 145.73H228.05933333333334Q228.00333333333333 145.128 227.57633333333334 144.764Q227.14933333333335 144.4 226.46333333333334 144.4Q225.74933333333334 144.4 225.32933333333335 144.764Q224.90933333333334 145.128 224.81133333333332 145.73ZM238.32133333333334 150.196Q237.18733333333336 150.196 236.31933333333336 149.79Q235.45133333333334 149.384 234.96133333333336 148.628Q234.47133333333335 147.872 234.47133333333335 146.808V146.416H236.29133333333334V146.808Q236.29133333333334 147.69 236.83733333333333 148.131Q237.38333333333335 148.572 238.32133333333334 148.572Q239.27333333333334 148.572 239.74233333333336 148.19400000000002Q240.21133333333336 147.816 240.21133333333336 147.228Q240.21133333333336 146.822 239.98033333333336 146.57Q239.74933333333334 146.318 239.30833333333334 146.157Q238.86733333333336 145.996 238.23733333333334 145.856L237.91533333333334 145.786Q236.90733333333336 145.562 236.18633333333335 145.219Q235.46533333333335 144.876 235.08033333333333 144.316Q234.69533333333334 143.756 234.69533333333334 142.86Q234.69533333333334 141.964 235.12233333333336 141.327Q235.54933333333335 140.69 236.32633333333337 140.34699999999998Q237.10333333333335 140.004 238.15333333333334 140.004Q239.20333333333335 140.004 240.02233333333334 140.361Q240.84133333333335 140.718 241.31033333333335 141.425Q241.77933333333334 142.132 241.77933333333334 143.196V143.61599999999999H239.95933333333335V143.196Q239.95933333333335 142.636 239.74233333333336 142.293Q239.52533333333335 141.95 239.11933333333334 141.789Q238.71333333333334 141.628 238.15333333333334 141.628Q237.31333333333336 141.628 236.91433333333336 141.94299999999998Q236.51533333333336 142.258 236.51533333333336 142.804Q236.51533333333336 143.168 236.70433333333335 143.42000000000002Q236.89333333333335 143.672 237.27133333333336 143.84Q237.64933333333335 144.008 238.23733333333334 144.134L238.55933333333334 144.204Q239.60933333333335 144.428 240.38633333333337 144.778Q241.16333333333336 145.128 241.59733333333335 145.702Q242.03133333333335 146.276 242.03133333333335 147.172Q242.03133333333335 148.068 241.57633333333337 148.747Q241.12133333333335 149.426 240.28833333333336 149.81099999999998Q239.45533333333336 150.196 238.32133333333334 150.196ZM247.85533333333336 152.52Q247.16933333333336 152.52 246.74233333333336 152.09300000000002Q246.31533333333337 151.666 246.31533333333337 150.952V150.126Q245.08333333333337 149.93 244.27133333333336 149.174Q243.17933333333335 148.166 243.17933333333335 146.276V143.924Q243.17933333333335 142.034 244.27133333333336 141.019Q245.36333333333334 140.004 247.21133333333336 140.004Q249.05933333333337 140.004 250.15133333333335 141.019Q251.24333333333337 142.034 251.24333333333337 143.924V146.276Q251.24333333333337 148.166 250.15133333333335 149.174Q249.33933333333337 149.93 248.10733333333337 150.126V150.672Q248.10733333333337 151.092 248.49933333333337 151.092H249.32533333333336V152.52ZM247.21133333333336 148.544Q248.24733333333336 148.544 248.82133333333337 147.942Q249.39533333333335 147.34 249.39533333333335 146.332V143.868Q249.39533333333335 142.86 248.82133333333337 142.258Q248.24733333333336 141.656 247.21133333333336 141.656Q246.18933333333337 141.656 245.60833333333335 142.258Q245.02733333333336 142.86 245.02733333333336 143.868V146.332Q245.02733333333336 147.34 245.60833333333335 147.942Q246.18933333333337 148.544 247.21133333333336 148.544ZM252.86733333333336 150.0V140.2H254.71533333333335V148.32H259.19533333333334V150.0Z"><title>Oracle SQL</title></path><path fill="#6f6264" d="M188.24633333333335 166.0V157.97H190.49033333333335Q191.28233333333336 157.97 191.86533333333335 158.27249999999998Q192.44833333333335 158.575 192.77283333333335 159.125Q193.09733333333335 159.675 193.09733333333335 160.423V163.536Q193.09733333333335 164.273 192.77283333333335 164.834Q192.44833333333335 165.395 191.86533333333335 165.6975Q191.28233333333336 166.0 190.49033333333335 166.0ZM189.43433333333334 164.922H190.49033333333335Q191.15033333333335 164.922 191.52983333333333 164.55349999999999Q191.90933333333334 164.185 191.90933333333334 163.536V160.423Q191.90933333333334 159.785 191.52983333333333 159.41649999999998Q191.15033333333335 159.048 190.49033333333335 159.048H189.43433333333334ZM196.62833333333333 166.11Q195.68233333333333 166.11 195.13783333333333 165.6205Q194.59333333333333 165.131 194.59333333333333 164.284Q194.59333333333333 163.426 195.17083333333335 162.9365Q195.74833333333333 162.447 196.76033333333334 162.447H198.44333333333333V161.886Q198.44333333333333 161.391 198.13533333333334 161.11599999999999Q197.82733333333334 160.841 197.26633333333334 160.841Q196.77133333333333 160.841 196.44133333333332 161.0555Q196.11133333333333 161.27 196.05633333333333 161.622H194.89033333333333Q194.98933333333335 160.808 195.64383333333336 160.324Q196.29833333333335 159.84 197.29933333333332 159.84Q198.37733333333333 159.84 199.00433333333334 160.3845Q199.63133333333334 160.929 199.63133333333334 161.864V166.0H198.47633333333334V164.889H198.46533333333335Q198.38833333333335 165.395 197.97033333333334 165.714Q197.46433333333334 166.11 196.62833333333333 166.11ZM196.98033333333333 165.197Q197.61833333333334 165.197 198.03083333333333 164.8725Q198.44333333333333 164.548 198.44333333333333 164.042V163.25H196.78233333333333Q196.32033333333334 163.25 196.05083333333334 163.503Q195.78133333333335 163.756 195.78133333333335 164.196Q195.78133333333335 164.658 196.10033333333334 164.9275Q196.41933333333333 165.197 196.98033333333333 165.197ZM204.49333333333334 166.0Q203.66833333333332 166.0 203.20633333333333 165.549Q202.74433333333334 165.098 202.74433333333334 164.295V161.028H201.07233333333332V159.95H202.74433333333334V158.245H203.93233333333333V159.95H206.29733333333334V161.028H203.93233333333333V164.295Q203.93233333333333 164.922 204.53733333333332 164.922H206.18733333333333V166.0ZM209.82833333333332 166.11Q208.88233333333332 166.11 208.33783333333332 165.6205Q207.79333333333332 165.131 207.79333333333332 164.284Q207.79333333333332 163.426 208.37083333333334 162.9365Q208.94833333333332 162.447 209.96033333333332 162.447H211.64333333333332V161.886Q211.64333333333332 161.391 211.33533333333332 161.11599999999999Q211.02733333333333 160.841 210.46633333333332 160.841Q209.97133333333332 160.841 209.6413333333333 161.0555Q209.31133333333332 161.27 209.25633333333332 161.622H208.09033333333332Q208.18933333333334 160.808 208.84383333333335 160.324Q209.49833333333333 159.84 210.4993333333333 159.84Q211.5773333333333 159.84 212.20433333333332 160.3845Q212.83133333333333 160.929 212.83133333333333 161.864V166.0H211.67633333333333V164.889H211.66533333333334Q211.58833333333334 165.395 211.17033333333333 165.714Q210.66433333333333 166.11 209.82833333333332 166.11ZM210.18033333333332 165.197Q210.81833333333333 165.197 211.23083333333332 164.8725Q211.64333333333332 164.548 211.64333333333332 164.042V163.25H209.98233333333332Q209.52033333333333 163.25 209.25083333333333 163.503Q208.98133333333334 163.756 208.98133333333334 164.196Q208.98133333333334 164.658 209.30033333333333 164.9275Q209.61933333333332 165.197 210.18033333333332 165.197ZM217.46233333333336 166.11Q216.71433333333334 166.11 216.27433333333335 165.692Q215.92233333333334 165.373 215.85633333333334 164.845H215.83433333333335V166.0H214.65733333333336V157.97H215.84533333333334V159.697L215.81233333333336 161.105H215.85633333333334Q215.92233333333334 160.577 216.28533333333334 160.247Q216.72533333333334 159.84 217.46233333333336 159.84Q218.37533333333334 159.84 218.92533333333336 160.45600000000002Q219.47533333333334 161.072 219.47533333333334 162.128V163.833Q219.47533333333334 164.878 218.92533333333336 165.494Q218.37533333333334 166.11 217.46233333333336 166.11ZM217.05533333333335 165.076Q217.63833333333335 165.076 217.96833333333336 164.7405Q218.29833333333335 164.405 218.29833333333335 163.767V162.183Q218.29833333333335 161.545 217.96833333333336 161.2095Q217.63833333333335 160.874 217.05533333333335 160.874Q216.49433333333334 160.874 216.16983333333334 161.22050000000002Q215.84533333333334 161.567 215.84533333333334 162.183V163.767Q215.84533333333334 164.383 216.16983333333334 164.7295Q216.49433333333334 165.076 217.05533333333335 165.076ZM223.02833333333334 166.11Q222.08233333333334 166.11 221.53783333333334 165.6205Q220.99333333333334 165.131 220.99333333333334 164.284Q220.99333333333334 163.426 221.57083333333333 162.9365Q222.14833333333334 162.447 223.16033333333334 162.447H224.84333333333333V161.886Q224.84333333333333 161.391 224.53533333333334 161.11599999999999Q224.22733333333335 160.841 223.66633333333334 160.841Q223.17133333333334 160.841 222.84133333333335 161.0555Q222.51133333333334 161.27 222.45633333333333 161.622H221.29033333333334Q221.38933333333335 160.808 222.04383333333334 160.324Q222.69833333333335 159.84 223.69933333333336 159.84Q224.77733333333333 159.84 225.40433333333334 160.3845Q226.03133333333335 160.929 226.03133333333335 161.864V166.0H224.87633333333335V164.889H224.86533333333335Q224.78833333333336 165.395 224.37033333333335 165.714Q223.86433333333335 166.11 223.02833333333334 166.11ZM223.38033333333334 165.197Q224.01833333333335 165.197 224.43083333333334 164.8725Q224.84333333333333 164.548 224.84333333333333 164.042V163.25H223.18233333333333Q222.72033333333334 163.25 222.45083333333335 163.503Q222.18133333333336 163.756 222.18133333333336 164.196Q222.18133333333336 164.658 222.50033333333334 164.9275Q222.81933333333333 165.197 223.38033333333334 165.197ZM230.02433333333335 166.099Q229.37533333333334 166.099 228.88583333333332 165.89Q228.39633333333333 165.681 228.11583333333334 165.3125Q227.83533333333332 164.944 227.79133333333334 164.438H228.97933333333333Q229.02333333333334 164.735 229.29833333333335 164.9165Q229.57333333333332 165.098 230.02433333333335 165.098H230.49733333333333Q231.03633333333335 165.098 231.31133333333332 164.878Q231.58633333333333 164.658 231.58633333333333 164.295Q231.58633333333333 163.943 231.33883333333333 163.73950000000002Q231.09133333333332 163.536 230.60733333333334 163.47L229.82633333333334 163.349Q228.85833333333335 163.195 228.40183333333334 162.7935Q227.94533333333334 162.392 227.94533333333334 161.6Q227.94533333333334 160.764 228.48983333333334 160.3075Q229.03433333333334 159.851 230.10133333333334 159.851H230.51933333333335Q231.46533333333335 159.851 232.03183333333334 160.2855Q232.59833333333333 160.72 232.67533333333333 161.446H231.48733333333334Q231.44333333333333 161.182 231.19583333333333 161.017Q230.94833333333332 160.852 230.51933333333335 160.852H230.10133333333334Q229.58433333333335 160.852 229.34783333333334 161.0445Q229.11133333333333 161.237 229.11133333333333 161.611Q229.11133333333333 161.941 229.32033333333334 162.106Q229.52933333333334 162.271 229.96933333333334 162.337L230.77233333333334 162.469Q231.79533333333333 162.612 232.27383333333333 163.0355Q232.75233333333333 163.459 232.75233333333333 164.262Q232.75233333333333 165.131 232.18583333333333 165.615Q231.61933333333334 166.099 230.49733333333333 166.099ZM236.83333333333337 166.11Q236.09633333333335 166.11 235.54083333333335 165.8185Q234.98533333333336 165.527 234.68833333333336 164.999Q234.39133333333336 164.471 234.39133333333336 163.767V162.183Q234.39133333333336 161.468 234.68833333333336 160.94549999999998Q234.98533333333336 160.423 235.54083333333335 160.13150000000002Q236.09633333333335 159.84 236.83333333333337 159.84Q237.58133333333336 159.84 238.13133333333337 160.13150000000002Q238.68133333333336 160.423 238.97833333333335 160.94549999999998Q239.27533333333335 161.468 239.27533333333335 162.183V163.261H235.53533333333337V163.767Q235.53533333333337 164.438 235.87083333333337 164.79Q236.20633333333336 165.142 236.84433333333337 165.142Q237.36133333333336 165.142 237.68033333333335 164.9605Q237.99933333333337 164.779 238.07633333333337 164.427H239.25333333333336Q239.12133333333335 165.197 238.46133333333336 165.6535Q237.80133333333336 166.11 236.83333333333337 166.11ZM238.13133333333337 162.447V162.172Q238.13133333333337 161.512 237.80133333333336 161.149Q237.47133333333335 160.786 236.83333333333337 160.786Q236.20633333333336 160.786 235.87083333333337 161.149Q235.53533333333337 161.512 235.53533333333337 162.183V162.458Z"><title>Database</title></path></g><g class="k-rise" style="animation-delay:0.26s"><rect x="314.7" y="84" width="129.3" height="92" rx="14" fill="#ffffff" fill-opacity=".025" stroke="#ffffff" stroke-opacity=".08"/><rect x="328.7" y="98" width="34" height="34" rx="9" fill="url(#tile)"/><path fill="#fff" d="M334.71516666666673 118.78 336.6471666666667 111.43H339.0621666666667L340.99416666666673 118.78H339.56616666666673L339.16716666666673 117.163H336.54216666666673L336.14316666666673 118.78ZM336.8676666666667 115.882H338.8416666666667L337.9491666666667 112.3015H337.7601666666667ZM344.4276666666667 118.927Q343.5771666666667 118.927 342.9261666666667 118.6225Q342.2751666666667 118.318 341.9076666666667 117.751Q341.5401666666667 117.184 341.5401666666667 116.386V116.092H342.9051666666667V116.386Q342.9051666666667 117.0475 343.31466666666665 117.37825000000001Q343.7241666666667 117.709 344.4276666666667 117.709Q345.1416666666667 117.709 345.4934166666667 117.4255Q345.84516666666667 117.142 345.84516666666667 116.70100000000001Q345.84516666666667 116.3965 345.6719166666667 116.20750000000001Q345.4986666666667 116.0185 345.16791666666666 115.89775Q344.8371666666667 115.777 344.3646666666667 115.672L344.1231666666667 115.6195Q343.3671666666667 115.4515 342.8264166666667 115.19425Q342.2856666666667 114.937 341.9969166666667 114.517Q341.70816666666667 114.097 341.70816666666667 113.425Q341.70816666666667 112.753 342.02841666666666 112.27525Q342.3486666666667 111.7975 342.9314166666667 111.54025Q343.5141666666667 111.283 344.3016666666667 111.283Q345.0891666666667 111.283 345.7034166666667 111.55075Q346.3176666666667 111.8185 346.66941666666673 112.34875Q347.0211666666667 112.879 347.0211666666667 113.677V113.992H345.6561666666667V113.677Q345.6561666666667 113.257 345.4934166666667 112.99975Q345.3306666666667 112.7425 345.02616666666665 112.62175Q344.7216666666667 112.501 344.3016666666667 112.501Q343.6716666666667 112.501 343.3724166666667 112.73725Q343.0731666666667 112.9735 343.0731666666667 113.383Q343.0731666666667 113.656 343.2149166666667 113.845Q343.3566666666667 114.034 343.6401666666667 114.16Q343.9236666666667 114.286 344.3646666666667 114.3805L344.6061666666667 114.433Q345.3936666666667 114.601 345.9764166666667 114.8635Q346.55916666666667 115.126 346.8846666666667 115.5565Q347.2101666666667 115.987 347.2101666666667 116.659Q347.2101666666667 117.331 346.8689166666667 117.84025Q346.5276666666667 118.3495 345.90291666666667 118.63825Q345.2781666666667 118.927 344.4276666666667 118.927ZM348.2391666666667 118.78V111.43H350.81166666666667L352.0821666666667 117.83500000000001H352.2711666666667L353.5416666666667 111.43H356.1141666666667V118.78H354.7701666666667V112.4485H354.5811666666667L353.32116666666667 118.78H351.0321666666667L349.7721666666667 112.4485H349.58316666666667V118.78Z"><title>ASM</title></path><path fill="#fafafa" d="M329.59066666666666 150.0V140.2H333.02066666666667L334.7146666666667 148.74H334.9666666666667L336.66066666666666 140.2H340.09066666666666V150.0H338.2986666666667V141.558H338.0466666666667L336.3666666666667 150.0H333.3146666666667L331.6346666666667 141.558H331.3826666666667V150.0ZM341.9386666666667 150.0V140.2H343.7866666666667V150.0ZM345.63466666666665 150.0V140.2H349.6666666666667Q350.59066666666666 140.2 351.29766666666666 140.571Q352.00466666666665 140.942 352.40366666666665 141.614Q352.80266666666665 142.286 352.80266666666665 143.21V143.406Q352.80266666666665 144.316 352.3896666666667 144.995Q351.9766666666667 145.674 351.2696666666667 146.04500000000002Q350.56266666666664 146.416 349.6666666666667 146.416H347.48266666666666V150.0ZM347.48266666666666 144.736H349.48466666666667Q350.1426666666667 144.736 350.5486666666667 144.372Q350.95466666666664 144.008 350.95466666666664 143.378V143.238Q350.95466666666664 142.608 350.5486666666667 142.244Q350.1426666666667 141.88 349.48466666666667 141.88H347.48266666666666ZM357.4926666666667 150.196Q356.3586666666667 150.196 355.4906666666667 149.79Q354.6226666666667 149.384 354.1326666666667 148.628Q353.6426666666667 147.872 353.6426666666667 146.808V146.416H355.4626666666667V146.808Q355.4626666666667 147.69 356.00866666666667 148.131Q356.55466666666666 148.572 357.4926666666667 148.572Q358.4446666666667 148.572 358.9136666666667 148.19400000000002Q359.3826666666667 147.816 359.3826666666667 147.228Q359.3826666666667 146.822 359.1516666666667 146.57Q358.9206666666667 146.318 358.47966666666673 146.157Q358.0386666666667 145.996 357.4086666666667 145.856L357.0866666666667 145.786Q356.07866666666666 145.562 355.35766666666666 145.219Q354.6366666666667 144.876 354.25166666666667 144.316Q353.8666666666667 143.756 353.8666666666667 142.86Q353.8666666666667 141.964 354.2936666666667 141.327Q354.72066666666666 140.69 355.49766666666665 140.34699999999998Q356.2746666666667 140.004 357.3246666666667 140.004Q358.3746666666667 140.004 359.1936666666667 140.361Q360.0126666666667 140.718 360.4816666666667 141.425Q360.9506666666667 142.132 360.9506666666667 143.196V143.61599999999999H359.1306666666667V143.196Q359.1306666666667 142.636 358.9136666666667 142.293Q358.69666666666666 141.95 358.29066666666665 141.789Q357.8846666666667 141.628 357.3246666666667 141.628Q356.48466666666667 141.628 356.08566666666667 141.94299999999998Q355.68666666666667 142.258 355.68666666666667 142.804Q355.68666666666667 143.168 355.8756666666667 143.42000000000002Q356.0646666666667 143.672 356.4426666666667 143.84Q356.8206666666667 144.008 357.4086666666667 144.134L357.7306666666667 144.204Q358.78066666666666 144.428 359.5576666666667 144.778Q360.3346666666667 145.128 360.7686666666667 145.702Q361.2026666666667 146.276 361.2026666666667 147.172Q361.2026666666667 148.068 360.74766666666665 148.747Q360.29266666666666 149.426 359.45966666666664 149.81099999999998Q358.62666666666667 150.196 357.4926666666667 150.196Z"><title>MIPS</title></path><path fill="#6f6264" d="M329.8656666666667 166.0V157.97H331.0536666666667V164.911H334.5626666666667V166.0ZM338.5666666666667 166.099Q337.81866666666673 166.099 337.2686666666667 165.813Q336.7186666666667 165.527 336.42166666666674 164.999Q336.1246666666667 164.471 336.1246666666667 163.756V162.194Q336.1246666666667 161.468 336.42166666666674 160.94549999999998Q336.7186666666667 160.423 337.2686666666667 160.137Q337.81866666666673 159.851 338.5666666666667 159.851Q339.3146666666667 159.851 339.8646666666667 160.137Q340.41466666666673 160.423 340.7116666666667 160.94549999999998Q341.0086666666667 161.468 341.0086666666667 162.194V163.756Q341.0086666666667 164.471 340.7116666666667 164.999Q340.41466666666673 165.527 339.8646666666667 165.813Q339.3146666666667 166.099 338.5666666666667 166.099ZM338.5666666666667 165.054Q339.1716666666667 165.054 339.50166666666667 164.7185Q339.8316666666667 164.383 339.8316666666667 163.756V162.194Q339.8316666666667 161.556 339.50166666666667 161.226Q339.1716666666667 160.896 338.5666666666667 160.896Q337.9726666666667 160.896 337.63716666666676 161.226Q337.30166666666673 161.556 337.30166666666673 162.194V163.756Q337.30166666666673 164.383 337.63716666666676 164.7185Q337.9726666666667 165.054 338.5666666666667 165.054ZM343.10966666666667 166.0 342.17466666666667 159.95H343.1756666666667L343.7366666666667 163.943Q343.78066666666666 164.218 343.81916666666666 164.55349999999999Q343.85766666666666 164.889 343.87966666666665 165.109Q343.9016666666667 164.889 343.9511666666667 164.55900000000003Q344.0006666666667 164.229 344.04466666666667 163.943L344.6716666666667 159.95H345.67266666666666L346.2886666666667 163.943Q346.3326666666667 164.229 346.38216666666665 164.5645Q346.4316666666667 164.9 346.45366666666666 165.12Q346.47566666666665 164.889 346.5251666666667 164.55349999999999Q346.5746666666667 164.218 346.6186666666667 163.943L347.1906666666667 159.95H348.15866666666665L347.1906666666667 166.0H345.93666666666667L345.3426666666667 162.051Q345.2986666666667 161.743 345.2436666666667 161.3965Q345.1886666666667 161.05 345.1666666666667 160.841Q345.13366666666667 161.05 345.0896666666667 161.391L344.9906666666667 162.051L344.37466666666666 166.0ZM350.0066666666667 162.909V161.831H353.5266666666667V162.909ZM359.23566666666665 166.0Q358.67466666666667 166.0 358.25666666666666 165.7745Q357.83866666666665 165.549 357.6021666666667 165.131Q357.36566666666664 164.713 357.36566666666664 164.163V159.048H355.3856666666667V157.97H358.5536666666667V164.163Q358.5536666666667 164.515 358.75166666666667 164.7185Q358.94966666666664 164.922 359.29066666666665 164.922H361.16066666666666V166.0ZM364.9666666666667 166.11Q364.2296666666667 166.11 363.6741666666667 165.8185Q363.1186666666667 165.527 362.8216666666667 164.999Q362.5246666666667 164.471 362.5246666666667 163.767V162.183Q362.5246666666667 161.468 362.8216666666667 160.94549999999998Q363.1186666666667 160.423 363.6741666666667 160.13150000000002Q364.2296666666667 159.84 364.9666666666667 159.84Q365.7146666666667 159.84 366.2646666666667 160.13150000000002Q366.8146666666667 160.423 367.1116666666667 160.94549999999998Q367.4086666666667 161.468 367.4086666666667 162.183V163.261H363.6686666666667V163.767Q363.6686666666667 164.438 364.0041666666667 164.79Q364.3396666666667 165.142 364.97766666666666 165.142Q365.49466666666666 165.142 365.8136666666667 164.9605Q366.1326666666667 164.779 366.2096666666667 164.427H367.3866666666667Q367.2546666666667 165.197 366.5946666666667 165.6535Q365.93466666666666 166.11 364.9666666666667 166.11ZM366.2646666666667 162.447V162.172Q366.2646666666667 161.512 365.93466666666666 161.149Q365.6046666666667 160.786 364.9666666666667 160.786Q364.3396666666667 160.786 364.0041666666667 161.149Q363.6686666666667 161.512 363.6686666666667 162.183V162.458ZM370.7856666666667 166.0 368.7836666666667 159.95H369.9936666666667L371.23666666666674 163.822Q371.3576666666667 164.163 371.4511666666667 164.5095Q371.5446666666667 164.856 371.5886666666667 165.054Q371.6436666666667 164.856 371.7371666666667 164.5095Q371.83066666666673 164.163 371.9296666666667 163.822L373.1506666666667 159.95H374.34966666666674L372.3476666666667 166.0ZM378.1666666666667 166.11Q377.42966666666666 166.11 376.87416666666667 165.8185Q376.3186666666667 165.527 376.02166666666665 164.999Q375.7246666666667 164.471 375.7246666666667 163.767V162.183Q375.7246666666667 161.468 376.02166666666665 160.94549999999998Q376.3186666666667 160.423 376.87416666666667 160.13150000000002Q377.42966666666666 159.84 378.1666666666667 159.84Q378.9146666666667 159.84 379.4646666666667 160.13150000000002Q380.0146666666667 160.423 380.3116666666667 160.94549999999998Q380.6086666666667 161.468 380.6086666666667 162.183V163.261H376.8686666666667V163.767Q376.8686666666667 164.438 377.20416666666665 164.79Q377.5396666666667 165.142 378.17766666666665 165.142Q378.69466666666665 165.142 379.01366666666667 164.9605Q379.3326666666667 164.779 379.4096666666667 164.427H380.5866666666667Q380.4546666666667 165.197 379.79466666666667 165.6535Q379.13466666666665 166.11 378.1666666666667 166.11ZM379.4646666666667 162.447V162.172Q379.4646666666667 161.512 379.1346666666667 161.149Q378.80466666666666 160.786 378.1666666666667 160.786Q377.5396666666667 160.786 377.20416666666665 161.149Q376.8686666666667 161.512 376.8686666666667 162.183V162.458ZM385.6356666666667 166.0Q385.0746666666667 166.0 384.6566666666667 165.7745Q384.2386666666667 165.549 384.00216666666665 165.131Q383.7656666666667 164.713 383.7656666666667 164.163V159.048H381.7856666666667V157.97H384.9536666666667V164.163Q384.9536666666667 164.515 385.1516666666667 164.7185Q385.3496666666667 164.922 385.6906666666667 164.922H387.5606666666667V166.0Z"><title>Low-level</title></path></g><g class="k-rise" style="animation-delay:0.34s"><rect x="456.0" y="84" width="129.3" height="92" rx="14" fill="#ffffff" fill-opacity=".025" stroke="#ffffff" stroke-opacity=".08"/><rect x="470.0" y="98" width="34" height="34" rx="9" fill="url(#tile)"/><path fill="#fff" d="M483.25 120.4V109.9H487.81Q488.8 109.9 489.53499999999997 110.245Q490.27 110.59 490.67499999999995 111.22Q491.08 111.85000000000001 491.08 112.70500000000001V112.885Q491.08 113.83000000000001 490.63 114.415Q490.18 115.0 489.52 115.27000000000001V115.54Q490.12 115.57000000000001 490.45 115.95250000000001Q490.78 116.33500000000001 490.78 116.965V120.4H488.8V117.25Q488.8 116.89 488.6125 116.665Q488.425 116.44000000000001 487.99 116.44000000000001H485.23V120.4ZM485.23 114.64H487.59999999999997Q488.305 114.64 488.7025 114.2575Q489.09999999999997 113.875 489.09999999999997 113.245V113.095Q489.09999999999997 112.465 488.71 112.08250000000001Q488.32 111.7 487.59999999999997 111.7H485.23Z"><title>R</title></path><path fill="#fafafa" d="M470.924 150.0V140.2H475.18Q476.104 140.2 476.78999999999996 140.522Q477.476 140.844 477.854 141.43200000000002Q478.23199999999997 142.02 478.23199999999997 142.818V142.986Q478.23199999999997 143.868 477.812 144.414Q477.392 144.96 476.776 145.212V145.464Q477.336 145.492 477.644 145.849Q477.952 146.206 477.952 146.794V150.0H476.104V147.06Q476.104 146.724 475.929 146.514Q475.754 146.304 475.348 146.304H472.772V150.0ZM472.772 144.624H474.984Q475.642 144.624 476.01300000000003 144.267Q476.384 143.91 476.384 143.322V143.182Q476.384 142.594 476.02 142.237Q475.656 141.88 474.984 141.88H472.772Z"><title>R</title></path><path fill="#6f6264" d="M470.473 166.0 472.519 157.97H474.081L476.127 166.0H474.928L474.444 163.965H472.167L471.683 166.0ZM472.387 162.986H474.213L473.663 160.665Q473.52 160.049 473.42650000000003 159.5925Q473.333 159.136 473.3 158.971Q473.267 159.136 473.179 159.5925Q473.091 160.049 472.937 160.654ZM477.524 166.0V159.95H478.701V161.105H478.723Q478.78900000000004 160.577 479.13 160.247Q479.559 159.84 480.31800000000004 159.84Q481.22 159.84 481.759 160.41750000000002Q482.298 160.995 482.298 161.974V166.0H481.11V162.106Q481.11 161.512 480.79100000000005 161.19299999999998Q480.47200000000004 160.874 479.922 160.874Q479.36100000000005 160.874 479.03650000000005 161.2095Q478.71200000000005 161.545 478.71200000000005 162.183V166.0ZM485.895 166.11Q484.949 166.11 484.4045 165.6205Q483.86 165.131 483.86 164.284Q483.86 163.426 484.4375 162.9365Q485.015 162.447 486.027 162.447H487.71V161.886Q487.71 161.391 487.402 161.11599999999999Q487.094 160.841 486.533 160.841Q486.038 160.841 485.70799999999997 161.0555Q485.378 161.27 485.323 161.622H484.157Q484.256 160.808 484.91049999999996 160.324Q485.565 159.84 486.566 159.84Q487.644 159.84 488.27099999999996 160.3845Q488.89799999999997 160.929 488.89799999999997 161.864V166.0H487.743V164.889H487.73199999999997Q487.655 165.395 487.23699999999997 165.714Q486.731 166.11 485.895 166.11ZM486.247 165.197Q486.885 165.197 487.2975 164.8725Q487.71 164.548 487.71 164.042V163.25H486.049Q485.587 163.25 485.3175 163.503Q485.048 163.756 485.048 164.196Q485.048 164.658 485.36699999999996 164.9275Q485.686 165.197 486.247 165.197ZM493.969 166.0Q493.408 166.0 492.99 165.7745Q492.572 165.549 492.3355 165.131Q492.099 164.713 492.099 164.163V159.048H490.119V157.97H493.28700000000003V164.163Q493.28700000000003 164.515 493.485 164.7185Q493.683 164.922 494.024 164.922H495.894V166.0ZM498.292 167.98 499.161 165.648 496.90599999999995 159.95H498.215L499.47999999999996 163.36Q499.55699999999996 163.58 499.63399999999996 163.888Q499.71099999999996 164.196 499.76599999999996 164.394Q499.81 164.196 499.887 163.888Q499.964 163.58 500.041 163.36L501.229 159.95H502.49399999999997L499.546 167.98ZM506.091 166.099Q505.442 166.099 504.9525 165.89Q504.463 165.681 504.1825 165.3125Q503.902 164.944 503.858 164.438H505.046Q505.09 164.735 505.365 164.9165Q505.64 165.098 506.091 165.098H506.564Q507.103 165.098 507.37800000000004 164.878Q507.653 164.658 507.653 164.295Q507.653 163.943 507.4055 163.73950000000002Q507.158 163.536 506.674 163.47L505.893 163.349Q504.925 163.195 504.4685 162.7935Q504.012 162.392 504.012 161.6Q504.012 160.764 504.5565 160.3075Q505.101 159.851 506.168 159.851H506.586Q507.532 159.851 508.0985 160.2855Q508.665 160.72 508.742 161.446H507.554Q507.51 161.182 507.2625 161.017Q507.015 160.852 506.586 160.852H506.168Q505.651 160.852 505.4145 161.0445Q505.178 161.237 505.178 161.611Q505.178 161.941 505.387 162.106Q505.596 162.271 506.036 162.337L506.839 162.469Q507.862 162.612 508.3405 163.0355Q508.819 163.459 508.819 164.262Q508.819 165.131 508.2525 165.615Q507.686 166.099 506.564 166.099ZM510.49100000000004 166.0V164.922H512.614V161.028H510.766V159.95H513.769V164.922H515.716V166.0ZM513.076 158.905Q512.691 158.905 512.46 158.7015Q512.229 158.498 512.229 158.157Q512.229 157.805 512.46 157.6015Q512.691 157.398 513.076 157.398Q513.461 157.398 513.692 157.6015Q513.923 157.805 513.923 158.157Q513.923 158.498 513.692 158.7015Q513.461 158.905 513.076 158.905ZM519.291 166.099Q518.642 166.099 518.1525 165.89Q517.663 165.681 517.3825 165.3125Q517.1020000000001 164.944 517.058 164.438H518.2460000000001Q518.2900000000001 164.735 518.565 164.9165Q518.84 165.098 519.291 165.098H519.764Q520.303 165.098 520.578 164.878Q520.8530000000001 164.658 520.8530000000001 164.295Q520.8530000000001 163.943 520.6055000000001 163.73950000000002Q520.3580000000001 163.536 519.874 163.47L519.0930000000001 163.349Q518.125 163.195 517.6685 162.7935Q517.212 162.392 517.212 161.6Q517.212 160.764 517.7565 160.3075Q518.301 159.851 519.368 159.851H519.7860000000001Q520.7320000000001 159.851 521.2985000000001 160.2855Q521.865 160.72 521.942 161.446H520.754Q520.71 161.182 520.4625000000001 161.017Q520.215 160.852 519.7860000000001 160.852H519.368Q518.851 160.852 518.6145 161.0445Q518.378 161.237 518.378 161.611Q518.378 161.941 518.587 162.106Q518.796 162.271 519.236 162.337L520.0390000000001 162.469Q521.062 162.612 521.5405000000001 163.0355Q522.019 163.459 522.019 164.262Q522.019 165.131 521.4525000000001 165.615Q520.8860000000001 166.099 519.764 166.099Z"><title>Analysis</title></path></g><g class="k-rise" style="animation-delay:0.42s"><rect x="597.3" y="84" width="129.3" height="92" rx="14" fill="#ffffff" fill-opacity=".025" stroke="#ffffff" stroke-opacity=".08"/><rect x="611.3" y="98" width="34" height="34" rx="9" fill="url(#tile)"/><path fill="#fff" d="M623.6188333333334 118.927Q622.8628333333334 118.927 622.2485833333334 118.58575Q621.6343333333334 118.2445 621.2720833333334 117.58825Q620.9098333333334 116.932 620.9098333333334 115.987V114.223Q620.9098333333334 112.8055 621.7078333333334 112.04425Q622.5058333333334 111.283 623.8708333333334 111.283Q625.2253333333334 111.283 625.9655833333334 112.00225Q626.7058333333334 112.7215 626.7058333333334 113.95V113.992H625.3408333333334V113.908Q625.3408333333334 113.5195 625.1780833333335 113.2045Q625.0153333333334 112.8895 624.6898333333334 112.70575Q624.3643333333334 112.522 623.8708333333334 112.522Q623.1358333333334 112.522 622.7158333333334 112.9735Q622.2958333333333 113.425 622.2958333333333 114.202V116.008Q622.2958333333333 116.7745 622.7158333333334 117.24175Q623.1358333333334 117.709 623.8918333333334 117.709Q624.6478333333334 117.709 624.9943333333334 117.31Q625.3408333333334 116.911 625.3408333333334 116.302V116.197H623.5978333333334V115.021H626.7058333333334V118.78H625.4248333333334V118.0765H625.2358333333334Q625.1623333333334 118.255 624.9995833333335 118.4545Q624.8368333333334 118.654 624.5113333333334 118.79050000000001Q624.1858333333334 118.927 623.6188333333334 118.927ZM628.0288333333334 118.78V111.43H629.4148333333334V118.78ZM632.5018333333334 118.78V112.69H630.3598333333333V111.43H636.0298333333334V112.69H633.8878333333333V118.78Z"><title>GIT</title></path><path fill="#fafafa" d="M615.6453333333334 150.196Q614.6373333333333 150.196 613.8183333333334 149.74099999999999Q612.9993333333334 149.286 612.5163333333335 148.411Q612.0333333333334 147.536 612.0333333333334 146.276V143.924Q612.0333333333334 142.034 613.0973333333334 141.019Q614.1613333333333 140.004 615.9813333333334 140.004Q617.7873333333333 140.004 618.7743333333333 140.963Q619.7613333333334 141.922 619.7613333333334 143.56V143.61599999999999H617.9413333333333V143.504Q617.9413333333333 142.986 617.7243333333333 142.56599999999997Q617.5073333333333 142.146 617.0733333333334 141.901Q616.6393333333334 141.656 615.9813333333334 141.656Q615.0013333333334 141.656 614.4413333333334 142.258Q613.8813333333334 142.86 613.8813333333334 143.896V146.304Q613.8813333333334 147.326 614.4413333333334 147.949Q615.0013333333334 148.572 616.0093333333334 148.572Q617.0173333333333 148.572 617.4793333333333 148.04000000000002Q617.9413333333333 147.508 617.9413333333333 146.696V146.556H615.6173333333334V144.988H619.7613333333334V150.0H618.0533333333334V149.062H617.8013333333333Q617.7033333333334 149.3 617.4863333333334 149.566Q617.2693333333334 149.832 616.8353333333334 150.014Q616.4013333333334 150.196 615.6453333333334 150.196ZM621.5813333333334 150.0V143.056H623.3453333333334V150.0ZM622.4633333333334 142.244Q621.9873333333334 142.244 621.6583333333333 141.93599999999998Q621.3293333333334 141.628 621.3293333333334 141.124Q621.3293333333334 140.62 621.6583333333333 140.312Q621.9873333333334 140.004 622.4633333333334 140.004Q622.9533333333334 140.004 623.2753333333334 140.312Q623.5973333333334 140.62 623.5973333333334 141.124Q623.5973333333334 141.628 623.2753333333334 141.93599999999998Q622.9533333333334 142.244 622.4633333333334 142.244ZM627.9653333333333 150.0Q627.2793333333333 150.0 626.8523333333333 149.57299999999998Q626.4253333333334 149.146 626.4253333333334 148.432V144.512H624.6893333333334V143.056H626.4253333333334V140.9H628.1893333333334V143.056H630.0933333333334V144.512H628.1893333333334V148.124Q628.1893333333334 148.544 628.5813333333333 148.544H629.9253333333334V150.0Z"><title>Git</title></path><path fill="#6f6264" d="M613.8413333333334 166.0 611.8063333333333 157.97H613.0273333333333L614.3143333333334 163.316Q614.4353333333333 163.789 614.5288333333333 164.2565Q614.6223333333334 164.724 614.6663333333333 164.988Q614.7103333333333 164.724 614.7928333333334 164.2565Q614.8753333333334 163.789 614.9963333333334 163.305L616.2723333333333 157.97H617.4603333333333L615.4143333333334 166.0ZM621.2333333333333 166.11Q620.4963333333334 166.11 619.9408333333333 165.8185Q619.3853333333334 165.527 619.0883333333334 164.999Q618.7913333333333 164.471 618.7913333333333 163.767V162.183Q618.7913333333333 161.468 619.0883333333334 160.94549999999998Q619.3853333333334 160.423 619.9408333333333 160.13150000000002Q620.4963333333334 159.84 621.2333333333333 159.84Q621.9813333333334 159.84 622.5313333333334 160.13150000000002Q623.0813333333334 160.423 623.3783333333333 160.94549999999998Q623.6753333333334 161.468 623.6753333333334 162.183V163.261H619.9353333333333V163.767Q619.9353333333333 164.438 620.2708333333334 164.79Q620.6063333333334 165.142 621.2443333333334 165.142Q621.7613333333334 165.142 622.0803333333333 164.9605Q622.3993333333334 164.779 622.4763333333334 164.427H623.6533333333334Q623.5213333333334 165.197 622.8613333333334 165.6535Q622.2013333333334 166.11 621.2333333333333 166.11ZM622.5313333333334 162.447V162.172Q622.5313333333334 161.512 622.2013333333334 161.149Q621.8713333333334 160.786 621.2333333333333 160.786Q620.6063333333334 160.786 620.2708333333334 161.149Q619.9353333333333 161.512 619.9353333333333 162.183V162.458ZM625.6553333333334 166.0V159.95H626.7993333333334V161.072Q626.9093333333334 160.632 627.1513333333335 160.335Q627.5803333333334 159.84 628.4273333333334 159.84Q629.3953333333334 159.84 629.9618333333334 160.4395Q630.5283333333334 161.039 630.5283333333334 162.084V162.491H629.3073333333334V162.183Q629.3073333333334 161.534 628.9828333333335 161.1875Q628.6583333333334 160.841 628.0753333333334 160.841Q627.4923333333334 160.841 627.1678333333334 161.19299999999998Q626.8433333333334 161.545 626.8433333333334 162.183V166.0ZM634.2243333333333 166.099Q633.5753333333333 166.099 633.0858333333333 165.89Q632.5963333333333 165.681 632.3158333333333 165.3125Q632.0353333333334 164.944 631.9913333333333 164.438H633.1793333333334Q633.2233333333334 164.735 633.4983333333333 164.9165Q633.7733333333333 165.098 634.2243333333333 165.098H634.6973333333333Q635.2363333333333 165.098 635.5113333333334 164.878Q635.7863333333333 164.658 635.7863333333333 164.295Q635.7863333333333 163.943 635.5388333333333 163.73950000000002Q635.2913333333333 163.536 634.8073333333333 163.47L634.0263333333334 163.349Q633.0583333333333 163.195 632.6018333333333 162.7935Q632.1453333333333 162.392 632.1453333333333 161.6Q632.1453333333333 160.764 632.6898333333334 160.3075Q633.2343333333333 159.851 634.3013333333333 159.851H634.7193333333333Q635.6653333333334 159.851 636.2318333333333 160.2855Q636.7983333333333 160.72 636.8753333333333 161.446H635.6873333333333Q635.6433333333333 161.182 635.3958333333333 161.017Q635.1483333333333 160.852 634.7193333333333 160.852H634.3013333333333Q633.7843333333333 160.852 633.5478333333333 161.0445Q633.3113333333333 161.237 633.3113333333333 161.611Q633.3113333333333 161.941 633.5203333333334 162.106Q633.7293333333333 162.271 634.1693333333333 162.337L634.9723333333334 162.469Q635.9953333333333 162.612 636.4738333333332 163.0355Q636.9523333333333 163.459 636.9523333333333 164.262Q636.9523333333333 165.131 636.3858333333333 165.615Q635.8193333333334 166.099 634.6973333333333 166.099ZM638.6243333333333 166.0V164.922H640.7473333333334V161.028H638.8993333333334V159.95H641.9023333333333V164.922H643.8493333333333V166.0ZM641.2093333333333 158.905Q640.8243333333334 158.905 640.5933333333334 158.7015Q640.3623333333334 158.498 640.3623333333334 158.157Q640.3623333333334 157.805 640.5933333333334 157.6015Q640.8243333333334 157.398 641.2093333333333 157.398Q641.5943333333333 157.398 641.8253333333334 157.6015Q642.0563333333334 157.805 642.0563333333334 158.157Q642.0563333333334 158.498 641.8253333333334 158.7015Q641.5943333333333 158.905 641.2093333333333 158.905ZM647.6333333333333 166.099Q646.8853333333334 166.099 646.3353333333334 165.813Q645.7853333333334 165.527 645.4883333333333 164.999Q645.1913333333333 164.471 645.1913333333333 163.756V162.194Q645.1913333333333 161.468 645.4883333333333 160.94549999999998Q645.7853333333334 160.423 646.3353333333334 160.137Q646.8853333333334 159.851 647.6333333333333 159.851Q648.3813333333334 159.851 648.9313333333334 160.137Q649.4813333333334 160.423 649.7783333333334 160.94549999999998Q650.0753333333333 161.468 650.0753333333333 162.194V163.756Q650.0753333333333 164.471 649.7783333333334 164.999Q649.4813333333334 165.527 648.9313333333334 165.813Q648.3813333333334 166.099 647.6333333333333 166.099ZM647.6333333333333 165.054Q648.2383333333333 165.054 648.5683333333334 164.7185Q648.8983333333334 164.383 648.8983333333334 163.756V162.194Q648.8983333333334 161.556 648.5683333333334 161.226Q648.2383333333333 160.896 647.6333333333333 160.896Q647.0393333333334 160.896 646.7038333333334 161.226Q646.3683333333333 161.556 646.3683333333333 162.194V163.756Q646.3683333333333 164.383 646.7038333333334 164.7185Q647.0393333333334 165.054 647.6333333333333 165.054ZM651.8573333333334 166.0V159.95H653.0343333333334V161.105H653.0563333333334Q653.1223333333334 160.577 653.4633333333334 160.247Q653.8923333333333 159.84 654.6513333333334 159.84Q655.5533333333334 159.84 656.0923333333334 160.41750000000002Q656.6313333333334 160.995 656.6313333333334 161.974V166.0H655.4433333333334V162.106Q655.4433333333334 161.512 655.1243333333334 161.19299999999998Q654.8053333333334 160.874 654.2553333333334 160.874Q653.6943333333334 160.874 653.3698333333334 161.2095Q653.0453333333334 161.545 653.0453333333334 162.183V166.0ZM658.4243333333334 166.0V164.922H660.5473333333334V161.028H658.6993333333335V159.95H661.7023333333334V164.922H663.6493333333334V166.0ZM661.0093333333334 158.905Q660.6243333333334 158.905 660.3933333333334 158.7015Q660.1623333333334 158.498 660.1623333333334 158.157Q660.1623333333334 157.805 660.3933333333334 157.6015Q660.6243333333334 157.398 661.0093333333334 157.398Q661.3943333333334 157.398 661.6253333333334 157.6015Q661.8563333333335 157.805 661.8563333333335 158.157Q661.8563333333335 158.498 661.6253333333334 158.7015Q661.3943333333334 158.905 661.0093333333334 158.905ZM665.0573333333333 166.0V159.95H666.2343333333333V161.105H666.2563333333334Q666.3223333333333 160.577 666.6633333333333 160.247Q667.0923333333333 159.84 667.8513333333333 159.84Q668.7533333333333 159.84 669.2923333333333 160.41750000000002Q669.8313333333333 160.995 669.8313333333333 161.974V166.0H668.6433333333333V162.106Q668.6433333333333 161.512 668.3243333333332 161.19299999999998Q668.0053333333333 160.874 667.4553333333333 160.874Q666.8943333333333 160.874 666.5698333333332 161.2095Q666.2453333333333 161.545 666.2453333333333 162.183V166.0ZM672.4493333333334 167.98V166.957H674.3083333333334Q674.7703333333334 166.957 674.9958333333334 166.737Q675.2213333333334 166.517 675.2213333333334 166.088V165.483L675.2433333333333 164.361H675.2213333333334Q675.1663333333333 164.9 674.8033333333334 165.23Q674.3633333333333 165.626 673.6263333333334 165.626Q672.6913333333333 165.626 672.1523333333333 165.01Q671.6133333333333 164.394 671.6133333333333 163.349V162.117Q671.6133333333333 161.072 672.1523333333333 160.45600000000002Q672.6913333333333 159.84 673.6263333333334 159.84Q674.3633333333333 159.84 674.8033333333334 160.236Q675.1553333333334 160.577 675.2213333333334 161.105H675.2323333333334L675.2213333333334 159.95H676.3983333333333V166.11Q676.3983333333333 166.979 675.8483333333334 167.4795Q675.2983333333334 167.98 674.3193333333334 167.98ZM674.0113333333334 164.603Q674.5723333333334 164.603 674.8968333333335 164.25650000000002Q675.2213333333334 163.91 675.2213333333334 163.294V162.183Q675.2213333333334 161.567 674.8968333333335 161.22050000000002Q674.5723333333334 160.874 674.0113333333334 160.874Q673.4283333333334 160.874 673.1148333333333 161.2095Q672.8013333333333 161.545 672.8013333333333 162.183V163.294Q672.8013333333333 163.921 673.1148333333333 164.262Q673.4283333333334 164.603 674.0113333333334 164.603Z"><title>Versioning</title></path></g><g class="k-rise" style="animation-delay:0.50s"><rect x="738.7" y="84" width="129.3" height="92" rx="14" fill="#ffffff" fill-opacity=".025" stroke="#ffffff" stroke-opacity=".08"/><rect x="752.7" y="98" width="34" height="34" rx="9" fill="url(#tile)"/><path fill="#fff" d="M765.4546666666668 119.488Q764.5906666666667 119.488 763.8886666666667 119.098Q763.1866666666667 118.708 762.7726666666667 117.958Q762.3586666666667 117.208 762.3586666666667 116.12799999999999V114.112Q762.3586666666667 112.49199999999999 763.2706666666668 111.62199999999999Q764.1826666666667 110.752 765.7426666666668 110.752Q767.2906666666668 110.752 768.1366666666668 111.57399999999998Q768.9826666666668 112.39599999999999 768.9826666666668 113.8V113.848H767.4226666666667V113.752Q767.4226666666667 113.30799999999999 767.2366666666667 112.948Q767.0506666666668 112.588 766.6786666666667 112.37799999999999Q766.3066666666667 112.16799999999999 765.7426666666668 112.16799999999999Q764.9026666666667 112.16799999999999 764.4226666666667 112.684Q763.9426666666667 113.19999999999999 763.9426666666667 114.088V116.15199999999999Q763.9426666666667 117.02799999999999 764.4226666666667 117.56199999999998Q764.9026666666667 118.09599999999999 765.7666666666668 118.09599999999999Q766.6306666666667 118.09599999999999 767.0266666666666 117.63999999999999Q767.4226666666667 117.184 767.4226666666667 116.488V116.368H765.4306666666668V115.02399999999999H768.9826666666668V119.32H767.5186666666667V118.51599999999999H767.3026666666667Q767.2186666666668 118.72 767.0326666666667 118.948Q766.8466666666667 119.17599999999999 766.4746666666667 119.332Q766.1026666666668 119.488 765.4546666666668 119.488ZM770.4946666666667 119.32V110.91999999999999H772.0786666666667V114.38799999999999H775.1986666666667V110.91999999999999H776.7826666666667V119.32H775.1986666666667V115.82799999999999H772.0786666666667V119.32Z"><title>GH</title></path><path fill="#fafafa" d="M756.9786666666668 150.196Q755.9706666666667 150.196 755.1516666666668 149.74099999999999Q754.3326666666668 149.286 753.8496666666667 148.411Q753.3666666666668 147.536 753.3666666666668 146.276V143.924Q753.3666666666668 142.034 754.4306666666668 141.019Q755.4946666666667 140.004 757.3146666666668 140.004Q759.1206666666667 140.004 760.1076666666668 140.963Q761.0946666666667 141.922 761.0946666666667 143.56V143.61599999999999H759.2746666666667V143.504Q759.2746666666667 142.986 759.0576666666667 142.56599999999997Q758.8406666666667 142.146 758.4066666666668 141.901Q757.9726666666668 141.656 757.3146666666668 141.656Q756.3346666666667 141.656 755.7746666666667 142.258Q755.2146666666667 142.86 755.2146666666667 143.896V146.304Q755.2146666666667 147.326 755.7746666666667 147.949Q756.3346666666667 148.572 757.3426666666668 148.572Q758.3506666666667 148.572 758.8126666666667 148.04000000000002Q759.2746666666667 147.508 759.2746666666667 146.696V146.556H756.9506666666667V144.988H761.0946666666667V150.0H759.3866666666668V149.062H759.1346666666667Q759.0366666666667 149.3 758.8196666666668 149.566Q758.6026666666668 149.832 758.1686666666667 150.014Q757.7346666666667 150.196 756.9786666666668 150.196ZM762.9146666666668 150.0V143.056H764.6786666666668V150.0ZM763.7966666666667 142.244Q763.3206666666667 142.244 762.9916666666668 141.93599999999998Q762.6626666666667 141.628 762.6626666666667 141.124Q762.6626666666667 140.62 762.9916666666668 140.312Q763.3206666666667 140.004 763.7966666666667 140.004Q764.2866666666667 140.004 764.6086666666667 140.312Q764.9306666666668 140.62 764.9306666666668 141.124Q764.9306666666668 141.628 764.6086666666667 141.93599999999998Q764.2866666666667 142.244 763.7966666666667 142.244ZM769.2986666666667 150.0Q768.6126666666667 150.0 768.1856666666667 149.57299999999998Q767.7586666666667 149.146 767.7586666666667 148.432V144.512H766.0226666666667V143.056H767.7586666666667V140.9H769.5226666666667V143.056H771.4266666666667V144.512H769.5226666666667V148.124Q769.5226666666667 148.544 769.9146666666667 148.544H771.2586666666667V150.0ZM772.9666666666667 150.0V140.2H774.8146666666668V144.246H778.4546666666668V140.2H780.3026666666667V150.0H778.4546666666668V145.926H774.8146666666668V150.0ZM784.8526666666667 150.112Q784.0406666666667 150.112 783.4316666666666 149.74099999999999Q782.8226666666667 149.37 782.4866666666667 148.712Q782.1506666666667 148.054 782.1506666666667 147.2V143.056H783.9146666666667V147.06Q783.9146666666667 147.844 784.2996666666667 148.236Q784.6846666666667 148.628 785.3986666666667 148.628Q786.2106666666667 148.628 786.6586666666667 148.089Q787.1066666666667 147.55 787.1066666666667 146.584V143.056H788.8706666666667V150.0H787.1346666666667V149.09H786.8826666666666Q786.7146666666667 149.44 786.2526666666668 149.776Q785.7906666666667 150.112 784.8526666666667 150.112ZM795.0026666666668 150.196Q794.0646666666668 150.196 793.5606666666667 149.874Q793.0566666666667 149.552 792.8186666666667 149.16H792.5666666666667V150.0H790.8306666666667V140.2H792.5946666666667V143.854H792.8466666666667Q793.0006666666667 143.602 793.2596666666667 143.378Q793.5186666666667 143.154 793.9456666666667 143.007Q794.3726666666668 142.86 795.0026666666668 142.86Q795.8426666666667 142.86 796.5566666666666 143.27300000000002Q797.2706666666667 143.686 797.7046666666668 144.484Q798.1386666666667 145.282 798.1386666666667 146.416V146.64Q798.1386666666667 147.774 797.7046666666668 148.572Q797.2706666666667 149.37 796.5566666666666 149.78300000000002Q795.8426666666667 150.196 795.0026666666668 150.196ZM794.4706666666667 148.656Q795.2826666666667 148.656 795.8286666666668 148.131Q796.3746666666667 147.606 796.3746666666667 146.598V146.458Q796.3746666666667 145.45 795.8356666666667 144.925Q795.2966666666667 144.4 794.4706666666667 144.4Q793.6586666666667 144.4 793.1126666666667 144.925Q792.5666666666667 145.45 792.5666666666667 146.458V146.598Q792.5666666666667 147.606 793.1126666666667 148.131Q793.6586666666667 148.656 794.4706666666667 148.656Z"><title>GitHub</title></path><path fill="#6f6264" d="M753.5906666666667 166.0V157.97H756.2196666666667Q757.0006666666667 157.97 757.5781666666667 158.267Q758.1556666666668 158.564 758.4691666666668 159.1085Q758.7826666666667 159.653 758.7826666666667 160.39Q758.7826666666667 161.116 758.4636666666668 161.666Q758.1446666666667 162.216 757.5726666666667 162.513Q757.0006666666667 162.81 756.2196666666667 162.81H754.7786666666667V166.0ZM754.7786666666667 161.743H756.2196666666667Q756.8356666666667 161.743 757.2041666666667 161.3745Q757.5726666666667 161.006 757.5726666666667 160.39Q757.5726666666667 159.763 757.2041666666667 159.4Q756.8356666666667 159.037 756.2196666666667 159.037H754.7786666666667ZM763.4356666666667 166.0Q762.8746666666667 166.0 762.4566666666667 165.7745Q762.0386666666668 165.549 761.8021666666668 165.131Q761.5656666666667 164.713 761.5656666666667 164.163V159.048H759.5856666666667V157.97H762.7536666666667V164.163Q762.7536666666667 164.515 762.9516666666668 164.7185Q763.1496666666668 164.922 763.4906666666668 164.922H765.3606666666668V166.0ZM768.5616666666668 166.11Q767.6156666666668 166.11 767.0711666666668 165.6205Q766.5266666666668 165.131 766.5266666666668 164.284Q766.5266666666668 163.426 767.1041666666667 162.9365Q767.6816666666668 162.447 768.6936666666668 162.447H770.3766666666668V161.886Q770.3766666666668 161.391 770.0686666666668 161.11599999999999Q769.7606666666668 160.841 769.1996666666668 160.841Q768.7046666666668 160.841 768.3746666666668 161.0555Q768.0446666666668 161.27 767.9896666666668 161.622H766.8236666666668Q766.9226666666668 160.808 767.5771666666668 160.324Q768.2316666666668 159.84 769.2326666666668 159.84Q770.3106666666667 159.84 770.9376666666667 160.3845Q771.5646666666668 160.929 771.5646666666668 161.864V166.0H770.4096666666668V164.889H770.3986666666668Q770.3216666666668 165.395 769.9036666666668 165.714Q769.3976666666667 166.11 768.5616666666668 166.11ZM768.9136666666668 165.197Q769.5516666666667 165.197 769.9641666666668 164.8725Q770.3766666666668 164.548 770.3766666666668 164.042V163.25H768.7156666666668Q768.2536666666667 163.25 767.9841666666667 163.503Q767.7146666666667 163.756 767.7146666666667 164.196Q767.7146666666667 164.658 768.0336666666667 164.9275Q768.3526666666668 165.197 768.9136666666668 165.197ZM776.4266666666667 166.0Q775.6016666666667 166.0 775.1396666666667 165.549Q774.6776666666667 165.098 774.6776666666667 164.295V161.028H773.0056666666667V159.95H774.6776666666667V158.245H775.8656666666667V159.95H778.2306666666667V161.028H775.8656666666667V164.295Q775.8656666666667 164.922 776.4706666666667 164.922H778.1206666666667V166.0ZM781.4096666666667 166.0V161.666H779.6936666666667V160.588H781.4096666666667V159.609Q781.4096666666667 158.85 781.8936666666667 158.41Q782.3776666666668 157.97 783.2136666666668 157.97H784.9846666666667V159.026H783.2356666666667Q782.9276666666667 159.026 782.7571666666668 159.18Q782.5866666666667 159.334 782.5866666666667 159.62V160.588H784.9846666666667V161.666H782.5866666666667V166.0ZM788.9666666666667 166.099Q788.2186666666668 166.099 787.6686666666667 165.813Q787.1186666666667 165.527 786.8216666666667 164.999Q786.5246666666667 164.471 786.5246666666667 163.756V162.194Q786.5246666666667 161.468 786.8216666666667 160.94549999999998Q787.1186666666667 160.423 787.6686666666667 160.137Q788.2186666666668 159.851 788.9666666666667 159.851Q789.7146666666667 159.851 790.2646666666667 160.137Q790.8146666666668 160.423 791.1116666666667 160.94549999999998Q791.4086666666667 161.468 791.4086666666667 162.194V163.756Q791.4086666666667 164.471 791.1116666666667 164.999Q790.8146666666668 165.527 790.2646666666667 165.813Q789.7146666666667 166.099 788.9666666666667 166.099ZM788.9666666666667 165.054Q789.5716666666667 165.054 789.9016666666668 164.7185Q790.2316666666668 164.383 790.2316666666668 163.756V162.194Q790.2316666666668 161.556 789.9016666666668 161.226Q789.5716666666667 160.896 788.9666666666667 160.896Q788.3726666666668 160.896 788.0371666666667 161.226Q787.7016666666667 161.556 787.7016666666667 162.194V163.756Q787.7016666666667 164.383 788.0371666666667 164.7185Q788.3726666666668 165.054 788.9666666666667 165.054ZM793.3886666666667 166.0V159.95H794.5326666666667V161.072Q794.6426666666667 160.632 794.8846666666668 160.335Q795.3136666666668 159.84 796.1606666666668 159.84Q797.1286666666667 159.84 797.6951666666668 160.4395Q798.2616666666668 161.039 798.2616666666668 162.084V162.491H797.0406666666668V162.183Q797.0406666666668 161.534 796.7161666666668 161.1875Q796.3916666666668 160.841 795.8086666666668 160.841Q795.2256666666667 160.841 794.9011666666668 161.19299999999998Q794.5766666666667 161.545 794.5766666666667 162.183V166.0ZM799.5156666666668 166.0V159.95H800.5056666666668V160.72H800.5716666666668Q800.6266666666668 160.368 800.8356666666668 160.137Q801.1106666666668 159.84 801.5726666666668 159.84Q802.0676666666668 159.84 802.3426666666668 160.225Q802.4856666666668 160.434 802.5516666666667 160.72H802.5956666666668Q802.6506666666668 160.368 802.8706666666668 160.137Q803.1456666666668 159.84 803.6186666666667 159.84Q804.1796666666668 159.84 804.4986666666668 160.26350000000002Q804.8176666666668 160.687 804.8176666666668 161.391V166.0H803.7616666666668V161.424Q803.7616666666668 161.083 803.6131666666668 160.89600000000002Q803.4646666666667 160.709 803.1896666666668 160.709Q802.9146666666668 160.709 802.7661666666668 160.8905Q802.6176666666668 161.072 802.6176666666668 161.413V166.0H801.7266666666668V161.424Q801.7266666666668 161.072 801.5726666666668 160.8905Q801.4186666666668 160.709 801.1326666666668 160.709Q800.8576666666668 160.709 800.7201666666667 160.8905Q800.5826666666668 161.072 800.5826666666668 161.413V166.0Z"><title>Platform</title></path></g><g clip-path="url(#clip)"><rect class="sw" x="-300" y="0" width="260" height="200" fill="url(#sweep)"/></g>
</svg>
